<svg width="170" height="168" viewBox="0 0 170 168" fill="none" xmlns="http://www.w3.org/2000/svg">
<path d="M49.9594 115.638C49.9594 115.638 49.9554 115.639 49.9537 115.639C44.5477 116.294 39.5613 120.237 37.2544 125.682C35.5492 129.704 35.7267 133.677 37.7274 136.312C42.5154 142.616 52.3416 137.621 52.4405 137.57C52.452 137.564 52.4642 137.563 52.4766 137.558C53.1582 137.168 53.7854 136.967 54.4677 136.803C55.1804 136.626 55.9093 136.583 56.6265 136.581C58.0668 136.599 59.4592 136.962 60.7373 137.503C62.0364 138.018 63.1788 138.807 64.2845 139.603C64.8056 140.046 65.3312 140.478 65.8383 140.93L67.2754 142.369L65.7184 141.071C65.1766 140.67 64.6188 140.292 64.0718 139.905C62.9176 139.227 61.7466 138.568 60.4796 138.197C59.2304 137.798 57.9267 137.588 56.6564 137.691C56.0248 137.751 55.3971 137.845 54.808 138.052C54.5243 138.143 54.2319 138.259 53.9594 138.39L63.5854 148.513C65.9382 150.987 68.8658 152.297 71.8287 152.203C74.7615 152.11 77.5187 150.62 79.8029 147.895C84.9222 141.785 79.1626 123.215 79.104 123.029C79.0438 122.838 79.0637 122.632 79.1585 122.457C80.3704 120.195 108.895 66.9921 112.529 61.4406C113.929 59.3042 117.323 57.6097 121.254 55.6463C128.017 52.2704 136.432 48.0686 136.761 40.1111C136.858 37.7515 136.247 35.9103 134.893 34.4834L134.889 34.4784C131.362 30.7692 123.388 30.6833 117.564 30.6194C115.09 30.5926 112.952 30.5692 111.477 30.2946C111.297 30.2609 111.127 30.1982 110.952 30.1451C111.308 30.6994 111.675 31.2475 112.054 31.7813C112.973 33.0601 113.954 34.3047 115.056 35.4336C116.159 36.5568 117.331 37.6313 118.665 38.4861C119.996 39.3353 121.456 40.003 123.03 40.3247C121.437 40.1253 119.901 39.5663 118.474 38.8034C117.046 38.0356 115.761 37.0316 114.541 35.9673C113.321 34.8965 112.22 33.7009 111.174 32.4613C110.16 31.2394 109.213 29.99 108.343 28.6213C107.216 27.6406 106.17 26.3586 105.096 25.0272C104.27 24.0035 103.438 22.9716 102.546 22.0341C99.6629 19.0018 96.1615 16.9569 90.2727 19.3762C87.86 20.3672 86.2336 21.9565 85.4385 24.1013C83.2236 30.0788 87.7895 39.0147 89.2897 41.9511C89.8741 43.0965 89.95 43.2431 89.8749 43.5729C89.8666 43.611 89.855 43.6489 89.8403 43.6851C88.7848 46.3121 65.9759 102.853 53.305 113.817C53.6487 113.76 53.9918 113.697 54.331 113.63" fill="white"/>
<g opacity="0.25">
<path d="M46.9572 119.76C42.7669 119.018 36.2139 129.338 40.9165 133.873C45.619 138.408 52.4871 133.415 57.1237 134.475C61.7603 135.536 63.6017 139.12 63.6017 139.12C63.6017 139.12 63.592 139.115 63.5872 139.111C63.8213 139.274 64.0553 139.438 64.2852 139.603C64.8064 140.046 65.3319 140.479 65.8391 140.93L67.2762 142.37L65.7192 141.071C65.1774 140.67 64.6196 140.292 64.0726 139.906C62.9183 139.227 61.7473 138.568 60.4803 138.197C59.2311 137.798 57.9274 137.589 56.6572 137.692C56.5944 137.697 56.5348 137.71 56.4728 137.716C57.734 138.884 60.3627 141.348 62.205 143.286C64.7059 145.916 70.4041 147.746 73.0304 142.877C75.6558 138.007 65.5518 128.768 63.2004 125.601C60.8483 122.433 69.468 115.819 77.7069 105.613C85.9457 95.4073 92.8 73.3372 97.8338 64.2005C102.868 55.0645 111.003 51.5469 116.773 47.9051C122.544 44.2633 113.951 47.294 106.455 43.296C98.9596 39.2988 99.9382 34.9169 97.525 28.909C95.1101 22.9011 90.8599 22.5939 88.1204 26.6495C85.3793 30.705 93.5033 40.7742 93.5033 40.7742C94.2845 45.2377 86.6074 61.2033 76.9529 81.7505C67.2992 102.297 59.8423 111.661 59.8423 111.661C59.8423 111.661 54.5667 120.019 46.9596 119.759L46.9572 119.76Z" fill="#451F17"/>
</g>
<path d="M36.4369 138.904C36.1503 138.603 35.8733 138.276 35.6051 137.924C33.0208 134.52 32.7208 129.557 34.8026 124.646C37.4772 118.337 43.3003 113.764 49.6369 112.996C51.021 112.828 56.7199 109.796 71.9442 77.8268C79.2749 62.4332 85.622 46.9951 87.0637 43.4507C87.0157 43.3568 86.9662 43.2596 86.9182 43.1658C85.1137 39.6341 80.3203 30.2535 82.9415 23.1794C84.0057 20.3078 86.1324 18.1999 89.2633 16.9144C98.8106 12.9933 103.642 18.9835 107.169 23.3545C108.843 25.4284 110.423 27.3886 111.968 27.6763C113.215 27.9095 115.342 27.9318 117.595 27.9565C123.893 28.0255 132.519 28.1186 136.819 32.6411L136.825 32.6478C138.675 34.5968 139.548 37.1437 139.422 40.2172C139.028 49.7472 129.831 54.3387 122.442 58.0276C119.006 59.7423 115.762 61.3624 114.757 62.8963C111.408 68.0125 85.3448 116.555 81.8834 123.007C83.0928 127.105 87.3168 143.072 81.8443 149.603C79.0585 152.927 75.6245 154.745 71.9121 154.865C68.2347 154.982 64.4962 153.336 61.6564 150.35L52.3289 140.541C49.2251 141.816 41.48 144.203 36.4386 138.903L36.4369 138.904ZM101.717 22.8827C99.052 20.0802 95.9547 18.32 90.72 20.4709C88.5957 21.343 87.2299 22.6655 86.5457 24.513C84.5116 30.0047 88.8994 38.5931 90.3416 41.4151C90.981 42.6667 91.1962 43.0883 91.0274 43.8337C91.0046 43.9332 90.9744 44.0316 90.9362 44.125C90.8658 44.3013 83.7755 61.9205 75.4151 79.4759C58.0971 115.841 52.2841 116.546 50.0966 116.811C45.1024 117.417 40.4891 121.079 38.3425 126.142C36.8052 129.768 36.9273 133.303 38.6685 135.596C38.8282 135.806 38.9947 136.003 39.1673 136.184C43.5199 140.762 51.8116 136.565 51.8981 136.521C52.657 136.129 53.5873 136.283 54.1755 136.901L64.4428 147.699C66.5296 149.894 69.2085 151.105 71.793 151.023C74.3791 150.94 76.8367 149.596 78.8977 147.136C82.799 142.482 79.5556 128.412 77.9766 123.384C77.8218 122.89 77.873 122.355 78.1165 121.898C79.3301 119.635 107.878 66.388 111.54 60.7941C113.114 58.3888 116.641 56.6285 120.725 54.59C127.547 51.1838 135.279 47.3245 135.578 40.0639C135.661 38.0398 135.157 36.4809 134.033 35.2962L134.029 35.2921C130.847 31.9451 123.16 31.8614 117.548 31.8003C115.017 31.7729 112.832 31.7483 111.257 31.455C108.318 30.9069 106.306 28.4116 104.175 25.7695C103.362 24.7632 102.562 23.7694 101.716 22.8802L101.717 22.8827Z" fill="#451F17"/>
<path d="M51.651 136.675C56.6725 133.993 62.5145 137 65.9345 140.819L67.276 142.372C65.2115 140.825 62.7829 139.304 60.2748 138.754C58.0926 138.243 55.5772 138.359 53.9136 139.782C51.8164 141.215 49.6424 138.236 51.6518 136.676L51.651 136.675Z" fill="#451F17"/>
<path d="M110.6 27.219C112.529 31.3563 115.156 35.4091 118.816 38.2328C120.071 39.1508 121.469 39.9048 123.029 40.3254C121.422 40.2249 119.824 39.7521 118.321 39.0581C113.8 36.8221 110.205 33.1178 107.234 29.085C105.739 26.6984 109.364 24.6811 110.598 27.219L110.6 27.219Z" fill="#451F17"/>
</svg>
