<svg width="15" height="11" viewBox="0 0 15 11" fill="none" xmlns="http://www.w3.org/2000/svg">
<path d="M0.970583 4.49864C1.30445 4.46723 1.54861 4.65005 1.7764 4.88603C2.84509 5.99505 3.92628 7.09119 4.98327 8.21148C5.23992 8.4837 5.38423 8.49901 5.65335 8.21873C8.14958 5.61786 10.6562 3.02532 13.1732 0.441092C13.3971 0.209945 13.6241 0.00940325 13.9689 0.000543974C14.3886 -0.0107315 14.7108 0.152763 14.8886 0.539349C14.9816 0.718625 15.0187 0.923218 14.9947 1.12508C14.9706 1.32695 14.8867 1.5162 14.7545 1.66689C14.6803 1.75871 14.5945 1.84166 14.5118 1.92703L6.21657 10.4883C5.55585 11.1705 5.0878 11.1705 4.42864 10.4883C3.06403 9.0805 1.70047 7.67134 0.337943 6.26083C-0.1301 5.77196 -0.104356 5.06161 0.380849 4.68227C0.548395 4.54732 0.75871 4.48184 0.970583 4.49864Z" fill="#F9D609"/>
</svg>
