<svg width="77" height="77" viewBox="0 0 77 77" fill="none" xmlns="http://www.w3.org/2000/svg">
<path d="M8.27747 56.8334C4.39088 50.4664 2.47372 42.8233 3.2932 34.8292C5.28286 15.4227 22.6131 1.30463 41.9989 3.29811C61.3846 5.2899 75.4876 22.6387 73.4962 42.0452C71.5066 61.4516 54.1763 75.5697 34.7906 73.5762C29.3982 73.0226 24.4173 71.2772 20.0755 68.6322L3.74677 72.2985L8.27747 56.8334Z" fill="white"/>
<g opacity="0.5">
<path d="M41.3058 10.0566C23.1965 8.19479 6.88636 20.3937 3.19369 37.8269C3.18863 36.5812 3.24258 35.3253 3.37241 34.0577C5.36208 14.6512 22.6924 0.533146 42.0781 2.52662C61.4638 4.51841 75.5668 21.8672 73.5754 41.2737C73.4456 42.5464 73.245 43.7938 72.987 45.0176C72.9195 27.1894 59.4219 11.9184 41.3058 10.0566Z" fill="white"/>
</g>
<path d="M38.4664 76.8711C47.258 76.8711 55.714 73.875 62.6256 68.244C70.5792 61.7639 75.5365 52.5729 76.5836 42.3608C77.6307 32.1487 74.6428 22.1408 68.1713 14.1787C61.6982 6.21656 52.5171 1.25396 42.3158 0.205738C32.1163 -0.844171 22.1174 2.14858 14.1638 8.62696C6.21023 15.107 1.25294 24.298 0.205833 34.5101C-0.611954 42.479 1.01688 50.3094 4.92033 57.2469L0.767326 71.4224C0.458755 72.4774 0.730225 73.6184 1.48057 74.4219C2.23259 75.2253 3.3522 75.5697 4.42459 75.3283L19.5612 71.9305C24.1593 74.5282 29.1706 76.12 34.4735 76.6652C35.809 76.8019 37.1427 76.8711 38.4664 76.8711ZM38.3348 6.21487C39.446 6.21487 40.5622 6.27226 41.6819 6.38705C50.234 7.26647 57.9313 11.4256 63.3557 18.0998C68.78 24.774 71.2857 33.1648 70.4089 41.7244C68.5962 59.3957 52.7548 72.2934 35.1075 70.4822C30.3037 69.9893 25.7882 68.4718 21.6874 65.9753C21.0012 65.5567 20.18 65.4217 19.396 65.5972L8.20663 68.1089L11.2552 57.7043C11.5014 56.8637 11.3817 55.9573 10.9247 55.2095C7.22698 49.1515 5.65548 42.2123 6.38053 35.1431C7.25902 26.5818 11.4137 18.8762 18.0808 13.4444C23.8744 8.72487 30.963 6.21319 38.3331 6.21319L38.3348 6.21487Z" fill="#000072"/>
<g opacity="0.3">
<path d="M8.07849 56.4941C17.7435 64.6773 31.0591 68.2609 44.2802 64.9677C58.943 61.3149 69.7479 50.1356 73.6345 36.5695C73.7272 38.3688 73.6851 40.1969 73.4962 42.0435C71.5065 61.45 54.1763 75.568 34.7905 73.5746C29.3982 73.0209 24.4173 71.2756 20.0755 68.6305L3.74677 72.2968L8.27746 56.8317C8.21001 56.7203 8.14594 56.6055 8.08018 56.4924L8.07849 56.4941Z" fill="#000072"/>
</g>
<path d="M27.1118 28.5179C30.1654 25.461 35.116 26.0079 38.1696 29.0665L38.6451 29.5425L39.1206 29.0665C42.1742 26.0096 47.1248 25.461 50.1784 28.5179C53.232 31.5748 53.232 36.5306 50.1784 39.5875L49.7029 40.0635L40.102 49.6748C39.2977 50.4799 37.9909 50.4799 37.1866 49.6748L27.5856 40.0635L27.1101 39.5875C24.0565 36.5306 24.0565 31.5748 27.1101 28.5179H27.1118Z" fill="#FF0068"/>
</svg>
