<svg width="407" height="185" viewBox="0 0 407 185" fill="none" xmlns="http://www.w3.org/2000/svg">
<path d="M392.877 122.887C374.944 100.544 338.046 110.33 338.046 110.33C338.046 110.33 323.744 16.2657 223.227 2.5471C170.502 -1.34058 120.109 34.4976 118.63 82.6244C107.646 79.4964 89.1294 76.413 77.8761 86.3333C66.6229 96.2536 63.5741 116.854 70.4785 125.925C62.1553 121.596 52.7177 119.864 43.3934 120.955C34.0692 122.046 25.2902 125.909 18.1991 132.042C11.108 138.174 6.03315 146.292 3.63487 155.339C1.23658 164.386 1.62589 173.942 4.75229 182.766H396.554C396.554 182.766 417.222 158.412 392.877 122.887Z" fill="white"/>
<g opacity="0.5">
<path d="M396.554 182.766C396.554 182.766 414.487 161.54 397.137 129.857C388.17 143.844 365.484 164.444 315.001 135.264C315.001 135.264 250.127 191.926 193.547 134.996C193.547 134.996 156.918 180.487 114.909 142.325C114.909 142.325 74.5584 182.542 2.46591 164.266C1.94004 170.524 2.71843 176.822 4.75233 182.766H396.554Z" fill="#F7E2C1"/>
</g>
<path d="M392.877 122.887C374.944 100.544 338.046 110.33 338.046 110.33C338.046 110.33 323.744 16.2657 223.227 2.5471C170.502 -1.34058 120.109 34.4976 118.63 82.6244C107.646 79.4964 89.1294 76.413 77.8761 86.3333C66.6229 96.2536 63.5741 116.854 70.4785 125.925C62.1553 121.596 52.7176 119.864 43.3934 120.955C34.0692 122.046 25.2902 125.909 18.1991 132.042C11.108 138.174 6.03315 146.292 3.63487 155.339C1.23658 164.386 1.62589 173.942 4.75229 182.766H396.554C396.554 182.766 417.222 158.412 392.877 122.887Z" stroke="#2B2B2B" stroke-linecap="round" stroke-linejoin="round"/>
</svg>
