<svg width="251" height="114" viewBox="0 0 251 114" fill="none" xmlns="http://www.w3.org/2000/svg">
<g clip-path="url(#clip0_1_155)">
<path d="M8.70955 75.7246C19.7693 61.9565 42.5246 67.987 42.5246 67.987C42.5246 67.987 51.3447 10.0232 113.334 1.56956C145.85 -0.826092 176.928 21.258 177.84 50.9145C184.614 48.9869 196.033 47.0869 202.973 53.2C209.913 59.313 211.793 72.0072 207.535 77.5971C212.668 74.9295 218.489 73.8623 224.239 74.5346C229.989 75.2068 235.403 77.5872 239.776 81.3661C244.15 85.1451 247.279 90.1474 248.758 95.7222C250.237 101.297 249.997 107.186 248.069 112.623H6.44229C6.44229 112.623 -6.30399 97.616 8.70955 75.7246Z" fill="white"/>
<g opacity="0.5">
<path d="M6.44226 112.623C6.44226 112.623 -4.61746 99.5435 6.08281 80.0203C11.6127 88.6391 25.6032 101.333 56.7363 83.3522C56.7363 83.3522 96.7448 118.268 131.638 83.1869C131.638 83.1869 154.228 111.219 180.135 87.7029C180.135 87.7029 205.019 112.486 249.479 101.223C249.804 105.079 249.324 108.961 248.069 112.623H6.44226Z" fill="#F7E2C1"/>
</g>
<path d="M8.70955 75.7247C19.7693 61.9565 42.5245 67.987 42.5245 67.987C42.5245 67.987 51.3447 10.0232 113.334 1.56956C145.85 -0.826092 176.928 21.258 177.84 50.9145C184.614 48.9869 196.033 47.0869 202.973 53.2C209.913 59.313 211.793 72.0072 207.535 77.5971C212.668 74.9295 218.489 73.8623 224.239 74.5346C229.989 75.2068 235.403 77.5872 239.776 81.3661C244.15 85.145 247.279 90.1474 248.758 95.7222C250.237 101.297 249.997 107.186 248.069 112.623H6.44229C6.44229 112.623 -6.304 97.616 8.70955 75.7247Z" stroke="#2B2B2B" stroke-linecap="round" stroke-linejoin="round"/>
</g>
<defs>
<clipPath id="clip0_1_155">
<rect width="251" height="114" fill="white" transform="matrix(-1 0 0 1 251 0)"/>
</clipPath>
</defs>
</svg>
