<svg width="196" height="196" viewBox="0 0 196 196" fill="none" xmlns="http://www.w3.org/2000/svg">
<g filter="url(#filter0_d_10_1210)">
<path d="M98.2011 146.242C127.065 146.242 150.465 122.843 150.465 93.9787C150.465 65.1143 127.065 41.7151 98.2011 41.7151C69.3367 41.7151 45.9375 65.1143 45.9375 93.9787C45.9375 122.843 69.3367 146.242 98.2011 146.242Z" fill="#FDFFFF"/>
</g>
<path d="M60.2717 58.1662C55.5528 63.128 51.8589 68.974 49.4022 75.3687C46.9455 81.7633 45.7743 88.5808 45.9558 95.4297L98.0949 94.0542L99.4688 146.242C108.064 146.042 116.477 143.72 123.96 139.483C131.444 135.245 137.766 129.222 142.365 121.949C146.965 114.677 149.699 106.38 150.326 97.7946C150.952 89.2096 149.452 80.6026 145.957 72.738C142.462 64.8734 137.081 57.9945 130.292 52.7126C123.504 47.4306 115.517 43.909 107.042 42.4605C98.5674 41.012 89.8663 41.6814 81.7119 44.4093C73.5574 47.1372 66.2021 51.8391 60.2992 58.0975L60.2717 58.1662Z" fill="#F9D609"/>
<path d="M97.9695 134.013C119.912 134.013 137.732 116.225 137.772 94.2822C137.811 72.3396 120.055 54.5516 98.1128 54.5516C76.1702 54.5516 58.3501 72.3396 58.3105 94.2822C58.2709 116.225 76.0269 134.013 97.9695 134.013Z" fill="#FDFFFF"/>
<path d="M109.208 74C109.344 74.1528 109.514 74.3006 109.523 74.5142C109.54 74.864 109.747 74.8821 110.021 74.8821C112.248 74.8755 114.474 74.8821 116.701 74.8772C117.029 74.8772 117.328 74.924 117.569 75.1647C117.946 75.5425 117.939 76.1166 117.52 76.5133C117.064 76.9453 116.601 77.3741 116.107 77.7601C115.789 78.0065 115.846 78.1502 116.119 78.3736C116.584 78.7531 117.023 79.1646 117.473 79.5638C117.801 79.8545 117.934 80.2044 117.778 80.6315C117.631 81.0298 117.303 81.2376 116.808 81.2385C114.553 81.2385 112.299 81.2385 110.046 81.245C109.874 81.245 109.604 81.1457 109.577 81.4249C109.55 81.7042 109.4 82.0992 109.693 82.2635C110.225 82.5616 110.245 83.0495 110.285 83.5292C110.341 84.2984 110.155 85.0659 109.752 85.7238C109.618 85.9443 109.548 86.1981 109.55 86.4564C109.555 89.6942 109.555 92.9319 109.55 96.1696C109.55 96.7059 109.559 96.7076 110.104 96.7166C111.172 96.7347 112.234 96.6665 113.298 96.756C114.555 96.8628 115.364 97.7342 115.368 99.0065C115.376 101.561 115.368 104.116 115.368 106.67C115.368 109.184 115.375 111.698 115.36 114.211C115.36 114.602 115.466 114.755 115.867 114.72C116.223 114.698 116.579 114.698 116.935 114.72C117.101 114.722 117.259 114.788 117.378 114.904C117.497 115.02 117.566 115.177 117.572 115.343C117.581 115.69 117.302 115.973 116.923 116C116.814 116.007 116.704 116 116.594 116H80.9841C80.8478 116 80.7098 116.007 80.5735 115.993C80.4144 115.987 80.2646 115.917 80.1568 115.8C80.049 115.683 79.9921 115.527 79.9985 115.368C79.9928 115.001 80.217 114.741 80.5907 114.721C80.9644 114.701 81.3299 114.704 81.6971 114.717C81.9656 114.727 82.0601 114.617 82.0552 114.355C82.0445 113.796 82.0486 113.235 82.0552 112.675C82.0683 111.308 82.9866 110.385 84.3549 110.375C85.9393 110.37 87.5236 110.375 89.1088 110.375C89.341 110.374 89.5723 110.404 89.7963 110.466C90.0279 110.529 90.0879 110.438 90.0846 110.224C90.0772 109.774 90.0846 109.321 90.0846 108.872C90.0903 107.645 90.9823 106.728 92.2201 106.693C92.7528 106.677 93.2856 106.677 93.8184 106.693C94.0755 106.699 94.2151 106.599 94.3219 106.371C95.1432 104.629 95.9876 102.9 96.7859 101.149C97.0323 100.609 96.9107 99.9913 96.9584 99.4106C97.0528 98.2689 97.0569 97.1207 97.1514 95.979C97.2089 95.285 97.4939 94.6329 97.6729 93.961C97.8068 93.46 97.9506 92.9614 98.1074 92.4678C98.2372 92.0571 98.5624 91.86 98.9082 91.9487C99.2778 92.0432 99.4832 92.3939 99.3731 92.8235C99.2351 93.3795 99.0659 93.9273 98.914 94.4801C98.8994 94.5656 98.8912 94.6521 98.8893 94.7388L101.385 93.7138C101.528 93.6546 101.573 93.5224 101.615 93.3926C101.879 92.5885 102.139 91.7836 102.405 90.9804C102.461 90.8161 102.475 90.6921 102.247 90.6609C102.101 90.6499 101.963 90.5878 101.858 90.4856C101.753 90.3833 101.687 90.2474 101.672 90.1015C101.621 89.759 101.829 89.5422 102.103 89.3763C103.388 88.5971 104.672 87.8168 105.955 87.0355C106.573 86.6585 107.196 86.2889 107.805 85.8979C108.45 85.4872 108.808 84.8803 108.924 84.1279C108.79 84.0244 108.706 84.1279 108.621 84.178C106.157 85.5103 103.695 86.8438 101.236 88.1788C100.868 88.3705 100.59 88.6995 100.463 89.0946C100.323 89.5052 100.206 89.9299 100.068 90.3438C99.93 90.7578 99.6212 90.9689 99.2795 90.8876C98.9008 90.7972 98.6865 90.4613 98.7916 90.0301C98.9493 89.3804 99.1136 88.7274 99.4429 88.141C99.5628 87.9266 99.5251 87.8223 99.3739 87.6227C98.7169 86.7513 98.0984 85.8478 98.036 84.7004C98.0378 84.5373 98.0612 84.3752 98.1058 84.2183C98.3259 83.2442 99.6179 82.583 100.426 82.5247C101.352 82.4573 102.015 82.9214 102.418 83.7567C102.664 84.2725 102.931 84.7817 103.164 85.3049C103.26 85.5201 103.362 85.5209 103.54 85.4248C105.013 84.6183 106.487 83.8117 107.967 83.0175C108.218 82.8828 108.2 82.6791 108.2 82.4606C108.2 79.9473 108.2 77.4332 108.195 74.9199C108.195 74.556 108.268 74.2464 108.551 74.0049L109.208 74ZM114.022 106.631C114.022 104.145 114.022 101.659 114.022 99.174C114.022 98.3404 113.728 98.048 112.886 98.0463C111.438 98.0463 109.99 98.0463 108.543 98.0463C107.639 98.0463 107.352 98.3437 107.351 99.2586C107.351 102.045 107.351 104.831 107.351 107.617C107.351 107.754 107.357 107.891 107.344 108.028C107.304 108.454 106.938 108.715 106.529 108.603C106.191 108.509 106.06 108.26 106.06 107.921C106.06 106.992 106.07 106.063 106.055 105.135C106.042 104.381 105.745 104.101 105 104.1C103.457 104.1 101.914 104.1 100.37 104.1C99.6565 104.1 99.3936 104.356 99.3928 105.052C99.3928 108.125 99.3928 111.198 99.3854 114.271C99.3854 114.6 99.4725 114.727 99.8224 114.724C101.762 114.71 103.701 114.71 105.641 114.724C105.962 114.724 106.07 114.624 106.065 114.301C106.05 113.264 106.056 112.226 106.065 111.188C106.065 110.695 106.312 110.4 106.699 110.393C107.087 110.385 107.357 110.697 107.357 111.208C107.357 112.219 107.373 113.23 107.349 114.24C107.34 114.619 107.459 114.733 107.836 114.726C109.734 114.709 111.632 114.709 113.531 114.726C113.93 114.726 114.039 114.606 114.036 114.215C114.014 111.684 114.022 109.157 114.022 106.631ZM94.6783 114.712C95.6475 114.712 96.6175 114.697 97.5859 114.72C97.9563 114.729 98.0483 114.596 98.045 114.246C98.0302 112.513 98.0401 110.78 98.0376 109.046C98.0376 108.336 97.7485 108.043 97.052 108.041C95.5095 108.041 93.9668 108.041 92.4238 108.041C91.6919 108.041 91.3716 108.351 91.3683 109.082C91.3618 110.83 91.3724 112.577 91.3609 114.324C91.3609 114.637 91.4768 114.721 91.7716 114.717C92.74 114.704 93.7092 114.712 94.6783 114.712ZM108.198 92.0087C108.198 90.5615 108.193 89.1135 108.198 87.6663C108.198 87.3517 108.175 87.2285 107.838 87.4396C106.75 88.1196 105.65 88.7808 104.552 89.4404C104.351 89.5558 104.202 89.7448 104.137 89.9677C103.764 91.1233 103.406 92.2847 102.987 93.4247C102.823 93.8789 102.912 94.1713 103.215 94.5171C103.979 95.3893 104.716 96.287 105.439 97.1946C105.643 97.4427 105.79 97.7329 105.869 98.0444C105.948 98.356 105.957 98.6812 105.895 98.9966C105.712 100.111 105.614 101.241 105.466 102.364C105.422 102.693 105.58 102.826 105.868 102.835C106.191 102.845 106.048 102.581 106.05 102.445C106.063 101.23 106.05 100.014 106.064 98.7987C106.066 98.3088 106.244 97.836 106.566 97.4666C106.888 97.0972 107.332 96.8558 107.816 96.7864C108.16 96.7404 108.203 96.5959 108.202 96.3125C108.198 94.8768 108.198 93.4427 108.198 92.0087ZM86.713 114.712H89.7035C89.885 114.712 90.0755 114.724 90.0739 114.457C90.0739 113.829 90.0994 113.198 90.0558 112.573C90.0148 111.988 89.6953 111.732 89.1088 111.731C87.5116 111.727 85.9141 111.727 84.3163 111.731C83.7233 111.731 83.4178 112.025 83.4079 112.596C83.3981 113.168 83.4169 113.746 83.3997 114.316C83.3907 114.621 83.5032 114.721 83.8046 114.717C84.7771 114.703 85.7471 114.712 86.7163 114.712H86.713ZM115.788 76.2735C115.712 76.2561 115.635 76.2435 115.558 76.2357C113.676 76.2357 111.794 76.2357 109.913 76.2299C109.617 76.2299 109.54 76.3581 109.543 76.6266C109.552 77.5539 109.561 78.4812 109.543 79.4077C109.534 79.7814 109.652 79.9054 110.031 79.9005C111.83 79.8841 113.631 79.8939 115.43 79.8906C115.526 79.8906 115.648 79.944 115.727 79.7995C115.389 79.503 115.051 79.2081 114.717 78.91C114.08 78.3424 114.082 77.7708 114.717 77.2155C115.06 76.9199 115.396 76.6193 115.796 76.2702L115.788 76.2735ZM101.123 95.6062C101.171 95.2587 101.01 95.3105 100.838 95.3819C100.168 95.6554 99.5037 95.9421 98.8269 96.1975C98.5395 96.3068 98.4228 96.485 98.4097 96.7766C98.3563 98.002 98.2906 99.2283 98.2397 100.455C98.2269 100.96 98.11 101.457 97.8963 101.916C97.1845 103.404 96.4762 104.897 95.7715 106.392C95.7329 106.474 95.6327 106.576 95.7239 106.648C95.8381 106.739 95.9161 106.617 95.9851 106.535C96.0204 106.493 96.0508 106.447 96.0836 106.403L99.8774 101.364C100.002 101.218 100.092 101.045 100.139 100.859C100.478 99.087 100.806 97.317 101.13 95.6029L101.123 95.6062ZM102.456 95.6628C102.346 96.2796 102.298 96.7864 102.159 97.2669C102.028 97.7195 102.194 97.9494 102.57 98.1392C103.099 98.4036 103.368 98.8348 103.417 99.4402C103.499 100.431 103.618 101.418 103.725 102.406C103.738 102.533 103.693 102.71 103.889 102.73C104.122 102.755 104.093 102.553 104.111 102.417C104.246 101.364 104.377 100.31 104.505 99.2554C104.549 98.8833 104.709 98.4956 104.467 98.1408C103.891 97.2825 103.164 96.5449 102.463 95.6595L102.456 95.6628ZM100.727 86.8441C100.973 86.8269 101.183 86.6872 101.399 86.5731C101.927 86.293 102.036 85.9612 101.772 85.4232C101.579 85.0317 101.377 84.6446 101.165 84.2618C100.945 83.8659 100.658 83.769 100.237 83.9333C100.085 83.9946 99.9378 84.0668 99.7961 84.1493C99.3731 84.3891 99.2557 84.7078 99.4577 85.1448C99.6598 85.5817 99.8947 86.0261 100.127 86.4589C100.184 86.572 100.27 86.6675 100.377 86.7348C100.484 86.8021 100.608 86.8388 100.734 86.8408L100.727 86.8441ZM101.389 102.749H101.881C102.382 102.749 102.413 102.716 102.368 102.21C102.315 101.627 102.255 101.046 102.197 100.464C102.167 100.167 102.139 99.8689 102.097 99.5732C102.082 99.4681 102.039 99.3432 101.907 99.3383C101.743 99.3326 101.78 99.4845 101.757 99.5847C101.725 99.717 101.709 99.8525 101.675 99.9847C101.511 100.68 101.511 101.425 101.051 102.034C100.893 102.243 100.55 102.477 100.662 102.686C100.773 102.874 101.17 102.71 101.396 102.746L101.389 102.749Z" fill="#E6C608"/>
<circle cx="98.2018" cy="187.307" r="0.933279" fill="#AAAAAA"/>
<path d="M98.2012 183.574V146.242" stroke="#AAAAAA" stroke-width="1.1" stroke-miterlimit="10" stroke-linecap="round"/>
<path d="M97.7351 153.708C104.693 153.708 110.334 148.068 110.334 141.109C110.334 134.151 104.693 128.51 97.7351 128.51C90.7767 128.51 85.1358 134.151 85.1358 141.109C85.1358 148.068 90.7767 153.708 97.7351 153.708Z" fill="#F9D609"/>
<defs>
<filter id="filter0_d_10_1210" x="0.737499" y="0.515087" width="194.927" height="194.927" filterUnits="userSpaceOnUse" color-interpolation-filters="sRGB">
<feFlood flood-opacity="0" result="BackgroundImageFix"/>
<feColorMatrix in="SourceAlpha" type="matrix" values="0 0 0 0 0 0 0 0 0 0 0 0 0 0 0 0 0 0 127 0" result="hardAlpha"/>
<feOffset dy="4"/>
<feGaussianBlur stdDeviation="22.6"/>
<feComposite in2="hardAlpha" operator="out"/>
<feColorMatrix type="matrix" values="0 0 0 0 0 0 0 0 0 0 0 0 0 0 0 0 0 0 0.1 0"/>
<feBlend mode="normal" in2="BackgroundImageFix" result="effect1_dropShadow_10_1210"/>
<feBlend mode="normal" in="SourceGraphic" in2="effect1_dropShadow_10_1210" result="shape"/>
</filter>
</defs>
</svg>
