<svg width="192" height="192" viewBox="0 0 192 192" fill="none" xmlns="http://www.w3.org/2000/svg">
<g filter="url(#filter0_d_7_1199)">
<path d="M146.794 92.3972C146.794 79.031 141.485 66.2124 132.033 56.7611C122.582 47.3098 109.763 42.0001 96.3972 42.0001C86.4296 42.0001 76.6859 44.9559 68.3981 50.4936C60.1104 56.0313 53.6509 63.9022 49.8364 73.1111C46.022 82.32 45.024 92.4531 46.9685 102.229C48.9131 112.005 53.713 120.985 60.7611 128.033C67.8093 135.081 76.7892 139.881 86.5652 141.826C96.3413 143.77 106.474 142.772 115.683 138.958C124.892 135.144 132.763 128.684 138.301 120.396C143.839 112.109 146.794 102.365 146.794 92.3972Z" fill="#FDFFFF"/>
</g>
<ellipse cx="95.9281" cy="43.7898" rx="0.933279" ry="0.466639" fill="#AAAAAA"/>
<circle cx="96.5" cy="92.5" r="50.5" fill="#F9D609"/>
<path d="M96.0365 132.363C118.228 132.363 136.251 114.373 136.291 92.1813C136.331 69.9897 118.373 51.9999 96.1815 51.9999C73.9898 51.9999 55.9675 69.9897 55.9274 92.1813C55.8874 114.373 73.8448 132.363 96.0365 132.363Z" fill="#FDFFFF"/>
<path d="M95.3348 104.909C94.9841 104.463 94.5721 104.352 94.1434 104.296C93.8774 104.26 93.6513 104.213 93.6669 103.859C93.6792 103.61 93.4743 103.636 93.3084 103.636C92.5725 103.636 91.8354 103.636 91.0995 103.636C90.2088 103.631 89.6821 103.1 89.6755 102.204C89.6755 101.87 89.651 101.536 89.6755 101.202C89.7089 100.841 89.5641 100.656 89.2401 100.503C86.9666 99.4243 85.1084 97.8556 83.7423 95.7279C82.4604 93.7582 81.7437 91.4745 81.6703 89.1256C81.6591 88.806 81.6168 88.4965 81.2739 88.3685C80.931 88.2404 80.686 88.4008 80.4622 88.6424C80.273 88.8461 80.0614 89.0298 79.8766 89.2358C79.6918 89.4418 79.566 89.4028 79.3945 89.2291C78.2811 88.1031 77.1614 86.9812 76.0355 85.8634C75.8529 85.6819 75.8673 85.5472 76.0488 85.3813C76.2715 85.1742 76.483 84.9504 76.6979 84.7322C76.9128 84.514 77.0419 84.2868 76.9106 83.984C76.7792 83.6812 76.5231 83.6043 76.2281 83.5977C75.933 83.591 75.6447 83.5876 75.3541 83.5977C75.1125 83.6054 74.9989 83.5164 75 83.2636C75.0059 81.6915 75.0059 80.1191 75 78.5463C75 78.2991 75.0935 78.19 75.344 78.1989C75.6213 78.2078 75.9007 78.1989 76.1768 78.1989C76.483 78.1989 76.7747 78.1376 76.8994 77.817C77.0241 77.4963 76.8994 77.2503 76.6679 77.0298C76.4552 76.8294 76.2615 76.6101 76.0466 76.413C75.864 76.246 75.8551 76.1102 76.0366 75.9298C77.1596 74.8164 78.2793 73.6949 79.3956 72.5652C79.5682 72.3915 79.704 72.3692 79.8777 72.5652C80.0937 72.8023 80.3298 73.0183 80.5535 73.2466C80.64 73.3484 80.7559 73.4209 80.8853 73.4542C81.0147 73.4875 81.1512 73.4799 81.2761 73.4325C81.5623 73.3278 81.6513 73.0751 81.6636 72.7968C81.6758 72.4917 81.6758 72.1844 81.6636 71.8793C81.6569 71.6377 81.7449 71.5242 81.9976 71.5242C83.5675 71.5301 85.137 71.5301 86.7061 71.5242C86.9532 71.5242 87.0624 71.6177 87.0535 71.8693C87.0434 72.1465 87.0535 72.426 87.0535 72.7044C87.0535 73.0105 87.1147 73.3034 87.4353 73.428C87.756 73.5527 88.002 73.428 88.2203 73.1965C88.394 73.0366 88.5594 72.8679 88.7157 72.691C88.9885 72.3258 89.1934 72.4182 89.4706 72.7055C90.3613 73.6251 91.2765 74.518 92.1728 75.4299C92.3754 75.6348 92.5691 75.6849 92.8697 75.6626C95.7267 75.4466 98.5858 75.2807 101.331 76.3752C104.324 77.5672 106.6 79.5765 108.159 82.403C108.194 82.4789 108.254 82.5405 108.329 82.5778C108.329 82.1447 108.342 81.7127 108.329 81.2807C108.316 80.9679 108.44 80.8688 108.745 80.8743C109.91 80.8977 109.715 80.7429 109.721 81.8407C109.731 84.0107 109.708 86.1829 109.73 88.3529C109.756 89.5774 109.61 90.7995 109.298 91.9836C109.203 92.3265 109.292 92.429 109.632 92.429C110.081 92.4283 110.514 92.264 110.851 91.9669C111.118 91.7442 111.296 91.7643 111.548 92.0204C112.524 93.0291 113.512 94.0244 114.524 94.9998C114.839 95.3015 114.868 95.5064 114.605 95.8615C113.999 96.681 114.03 97.5717 114.625 98.2764C114.949 98.6477 115.406 98.8765 115.898 98.9133C116.246 98.9523 116.4 99.0781 116.394 99.4633C116.373 100.911 116.378 102.358 116.394 103.805C116.394 104.139 116.263 104.265 115.949 104.315C114.293 104.578 113.662 106.036 114.624 107.401C114.847 107.722 114.862 107.912 114.563 108.199C113.579 109.139 112.61 110.106 111.656 111.1C111.345 111.425 111.136 111.469 110.765 111.188C109.972 110.594 109.086 110.632 108.388 111.203C108.199 111.358 108.044 111.55 107.932 111.768C107.821 111.986 107.755 112.224 107.74 112.469C107.707 112.881 107.528 112.998 107.129 112.991C105.726 112.969 104.323 112.969 102.92 112.991C102.535 112.991 102.38 112.866 102.337 112.485C102.248 111.706 101.849 111.133 101.088 110.865C100.711 110.733 100.402 110.769 100.086 111.103C97.0059 114.355 91.6339 113.258 90.0329 109.073C89.6543 108.083 89.6242 107.06 89.6988 106.03C89.7411 105.393 90.3257 104.917 90.9993 104.917C92.263 104.908 93.5266 104.917 94.7914 104.917L95.3348 104.909ZM104.4 97.3123C104.605 97.123 104.734 97.0161 104.845 96.8981C107.584 94.1146 108.735 90.7745 108.17 86.9244C107.555 82.7437 105.222 79.7765 101.429 77.9584C99.8707 77.2124 98.2006 76.9463 96.4982 76.914C95.082 76.8873 93.6658 76.8973 92.2674 77.1957C86.8441 78.3581 82.728 83.4306 83.1199 89.3226C83.2649 91.8698 84.2495 94.2972 85.92 96.2256C86.236 96.6193 86.5999 96.972 87.0033 97.2755C87.0033 96.3547 87.0167 95.5097 86.9978 94.6646C86.99 94.315 87.118 94.2082 87.4565 94.2137C88.4585 94.2304 89.4606 94.2193 90.4559 94.2204C91.0594 94.2204 91.0605 94.2204 91.0605 94.8472V101.693C91.0605 102.235 91.0605 102.236 91.6172 102.236C92.1449 102.236 92.6738 102.216 93.2004 102.242C93.5634 102.261 93.6814 102.145 93.6781 101.774C93.6614 99.8663 93.6781 97.9602 93.6636 96.0541C93.6636 95.6823 93.7616 95.5386 94.1546 95.5476C95.1566 95.572 96.1587 95.5553 97.154 95.5565C97.7252 95.5565 97.7274 95.5565 97.7274 96.1298C97.7274 98.0226 97.7341 99.9153 97.7219 101.808C97.7219 102.132 97.8143 102.253 98.1494 102.242C98.6894 102.219 99.2316 102.237 99.7738 102.236C100.337 102.236 100.337 102.236 100.337 101.659C100.337 97.5817 100.337 93.5045 100.337 89.4273C100.337 88.8784 100.337 88.8762 100.894 88.8762C101.88 88.8762 102.866 88.8762 103.852 88.8762C104.393 88.8762 104.395 88.8762 104.395 89.4384C104.395 91.5672 104.395 93.6964 104.395 95.8259L104.4 97.3123ZM112.384 101.565C112.401 101.857 112.401 102.149 112.384 102.44C111.847 107.186 106.989 110.178 102.49 108.545C102.221 108.447 101.934 108.173 101.689 108.289C101.444 108.405 101.502 108.811 101.365 109.068C101.228 109.326 101.306 109.426 101.565 109.514C101.997 109.652 102.394 109.883 102.728 110.191C103.062 110.499 103.324 110.876 103.497 111.295C103.529 111.393 103.593 111.477 103.68 111.533C103.767 111.588 103.87 111.612 103.972 111.6C104.679 111.588 105.387 111.586 106.096 111.6C106.356 111.6 106.486 111.508 106.598 111.272C107.377 109.637 109.069 108.934 110.781 109.552C110.872 109.594 110.976 109.605 111.074 109.58C111.173 109.556 111.26 109.499 111.322 109.419C111.824 108.9 112.334 108.388 112.854 107.885C113.03 107.716 113.053 107.57 112.965 107.337C112.352 105.638 113.064 103.922 114.698 103.156C114.92 103.054 115.016 102.934 115.012 102.685C114.999 101.962 114.999 101.24 115.012 100.517C115.012 100.269 114.916 100.15 114.699 100.046C113.036 99.2451 112.361 97.5962 112.977 95.8237C113.045 95.6266 113.034 95.4897 112.881 95.3438C112.342 94.8205 111.812 94.2894 111.291 93.7506C111.147 93.6036 111.013 93.5412 110.815 93.6392C110.364 93.8665 109.85 93.9396 109.353 93.8474C108.765 93.7227 108.556 93.9977 108.351 94.4676C108.215 94.7849 108.203 94.9129 108.537 95.1033C111.038 96.5206 112.314 98.6906 112.384 101.565ZM90.8289 76.0801C90.3034 75.5557 89.8324 75.1037 89.3815 74.6327C89.1833 74.4245 89.0475 74.4 88.7892 74.5704C88.5103 74.762 88.1873 74.8796 87.8504 74.9119C87.5136 74.9443 87.174 74.8904 86.8638 74.7553C86.5535 74.6202 86.2827 74.4084 86.0769 74.1398C85.8711 73.8711 85.737 73.5546 85.6873 73.2198C85.6439 72.9649 85.547 72.8959 85.3132 72.8992C84.6753 72.9081 84.0362 72.907 83.3971 72.8992C83.1744 72.8992 83.0909 72.9682 83.0497 73.2009C82.7792 74.7073 81.1937 75.3954 79.9245 74.557C79.7096 74.4156 79.5793 74.3967 79.3967 74.5893C78.9659 75.0424 78.5216 75.48 78.0718 75.9187C77.9004 76.0846 77.897 76.2059 78.0317 76.413C78.8857 77.7168 78.2132 79.2822 76.6812 79.5706C76.4741 79.6095 76.3928 79.6819 76.394 79.889C76.3995 80.557 76.394 81.225 76.394 81.8931C76.394 82.0668 76.4363 82.1837 76.6422 82.2004C78.0985 82.3195 78.9536 84.1209 78.0084 85.4013C77.8792 85.5761 77.9037 85.6908 78.0451 85.83C78.5105 86.2887 78.9737 86.7496 79.4279 87.2184C79.5871 87.3831 79.7129 87.3787 79.89 87.2406C80.0864 87.0832 80.3147 86.9704 80.559 86.9098C80.8033 86.8493 81.0579 86.8425 81.3051 86.8899C81.7126 86.9656 81.825 86.8042 81.8417 86.4524C81.8502 86.3418 81.8704 86.2325 81.9018 86.1261C81.9776 85.8445 81.8851 85.6697 81.6313 85.5093C79.8588 84.3882 78.967 82.7905 78.9993 80.6672C79.0405 77.8526 81.6836 75.0035 85.2464 75.5724C86.2835 75.7371 87.2473 76.2091 88.0132 76.9274C88.1379 77.0387 88.2548 77.2224 88.4752 77.1033C89.2313 76.7002 90.0184 76.358 90.8289 76.0801ZM95.6966 106.302C94.3093 106.302 92.921 106.317 91.5337 106.292C91.1229 106.285 91.0182 106.444 91.0661 106.805C91.0917 106.998 91.1139 107.191 91.1295 107.385C91.3522 110.108 94.0243 112.069 96.6797 111.457C98.7506 110.979 100.343 109.23 100.347 106.669C100.347 106.36 100.214 106.298 99.9442 106.299C98.5279 106.307 97.1128 106.302 95.6966 106.302ZM101.733 101.215C101.7 103.828 103.722 105.076 105.435 104.849C107.02 104.639 108.233 103.389 108.307 101.682C108.376 100.108 107.336 98.8554 105.93 98.4446C105.788 98.3917 105.635 98.3799 105.488 98.4107C105.34 98.4414 105.204 98.5134 105.096 98.6182C104.236 99.3666 103.272 99.9865 102.234 100.459C101.858 100.632 101.635 100.846 101.733 101.216V101.215ZM109.743 101.575C109.769 102.248 109.629 102.917 109.337 103.524C108.565 105.142 107.29 106.119 105.503 106.283C103.563 106.462 102.043 105.675 101.004 104.015C100.827 103.732 100.651 103.569 100.314 103.626C100.189 103.635 100.064 103.635 99.9397 103.626C99.4654 103.626 99.4476 103.656 99.6402 104.083C99.6747 104.16 99.7126 104.233 99.7515 104.305C99.9252 104.667 100.107 104.939 100.61 104.93C101.186 104.921 101.709 105.502 101.723 106.089C101.714 106.239 101.75 106.388 101.829 106.516C101.908 106.644 102.024 106.745 102.162 106.804C103.218 107.373 104.419 107.619 105.613 107.511C107.089 107.379 108.461 106.696 109.456 105.599C110.452 104.502 110.999 103.071 110.988 101.59C110.988 99.4499 110.035 97.7376 108.214 96.5552C107.476 96.0764 107.49 96.0964 106.914 96.7545C106.644 97.0617 106.7 97.1586 107.044 97.3278C108.794 98.1929 109.676 99.6303 109.743 101.576V101.575ZM81.6747 80.5503C81.6747 78.8424 83.799 77.5286 85.5949 78.4861C86.008 78.7088 86.2897 78.7355 86.5858 78.3748C86.6338 78.3244 86.6894 78.282 86.7506 78.249C87.0234 78.082 86.9933 77.9283 86.7506 77.7502C86.2484 77.3704 85.6626 77.1163 85.0421 77.009C84.4217 76.9017 83.7846 76.9443 83.184 77.1334C82.5834 77.3224 82.0367 77.6524 81.5895 78.0957C81.1424 78.5391 80.8078 79.0829 80.6137 79.6819C80.1405 81.1438 80.5992 82.8495 81.727 83.8292C82.335 84.357 82.335 84.357 82.6534 83.6177C82.6671 83.5795 82.6835 83.5423 82.7024 83.5064C82.856 83.2614 82.787 83.0977 82.571 82.9085C81.9653 82.3729 81.6602 81.696 81.6747 80.5503ZM101.732 94.6646C101.732 95.9161 101.732 97.1668 101.732 98.4167C101.732 99.1349 101.718 99.1059 102.379 98.7741C102.862 98.5336 103.033 98.2241 103.023 97.6708C102.987 95.4763 103.012 93.2807 103.006 91.0862C103.006 90.1644 103.134 90.2957 102.185 90.2623C101.803 90.249 101.72 90.3959 101.724 90.7467C101.747 92.0504 101.733 93.3586 101.732 94.6646ZM96.3424 99.6114C96.3424 99.0001 96.3424 98.3867 96.3424 97.7788C96.3324 96.8413 96.4838 96.9704 95.4951 96.9448C95.1722 96.9359 95.0575 97.035 95.0609 97.3702C95.0776 98.7062 95.0609 100.034 95.0698 101.366C95.0776 102.354 94.9017 102.219 95.9605 102.241C96.2455 102.247 96.3568 102.152 96.3513 101.859C96.3324 101.11 96.3413 100.361 96.3424 99.6114ZM89.6743 97.3479C89.6743 97.0707 89.6799 96.7912 89.6743 96.5162C89.6521 95.4941 89.8803 95.6255 88.7347 95.6121C88.4808 95.6121 88.3917 95.7134 88.4006 95.9595C88.4107 96.4583 88.4697 96.9682 88.3873 97.4537C88.2514 98.2631 88.6667 98.6338 89.3147 98.9289C89.6487 99.0803 89.691 98.9768 89.6821 98.6784C89.6654 98.2352 89.6743 97.791 89.6743 97.3479ZM83.0831 80.9166C83.1084 81.1455 83.182 81.3664 83.2991 81.5646C83.4372 81.7751 83.5608 81.8385 83.72 81.5758C84.0378 81.057 84.3999 80.5668 84.8022 80.1105C85.0082 79.8734 84.9915 79.7487 84.6708 79.6652C83.9004 79.447 83.0709 80.0872 83.0831 80.9166ZM96.1887 103.63C96.4281 103.913 96.6764 104.098 96.7699 104.341C96.9781 104.881 97.3611 104.944 97.8566 104.913C98.4133 104.879 98.4934 104.973 98.1995 104.357C98.1261 104.192 98.0632 104.023 98.0113 103.85C97.9946 103.782 97.9543 103.722 97.8976 103.682C97.8409 103.641 97.7715 103.622 97.7018 103.627C97.2208 103.63 96.7365 103.63 96.1887 103.63Z" fill="#FFC700"/>
<path d="M82.3896 100.856C81.7527 99.833 81.1426 98.8521 80.5335 97.8779C80.4411 97.7298 80.3409 97.663 80.2251 97.8489C79.6076 98.8369 78.9923 99.823 78.3792 100.807C78.4248 100.853 78.4426 100.885 78.4627 100.887C79.0628 100.937 79.0639 100.937 79.0639 101.526C79.0639 103.391 79.055 105.256 79.0717 107.12C79.0717 107.514 78.9692 107.661 78.5584 107.647C77.5352 107.609 77.6822 107.758 77.6755 106.75C77.6677 105.414 77.6644 104.078 77.6755 102.742C77.6755 102.4 77.5764 102.263 77.2302 102.289C76.8839 102.315 76.5354 102.282 76.1891 102.297C75.8429 102.311 75.7995 102.209 75.9798 101.923C76.8705 100.499 77.7612 99.0692 78.6519 97.6419C79.1452 96.8514 79.6462 96.0664 80.1283 95.2693C80.3153 94.9586 80.4311 94.9865 80.6104 95.2759C81.9731 97.4737 83.3404 99.669 84.7121 101.862C84.7822 101.973 84.9347 102.095 84.8457 102.229C84.7566 102.363 84.5896 102.288 84.4549 102.292C84.2055 102.299 83.955 102.292 83.7056 102.292C83.062 102.292 83.062 102.292 83.062 102.96V109.014C83.062 110.168 83.052 111.324 83.0687 112.479C83.0687 112.839 82.9908 113.005 82.5855 112.992C81.5245 112.955 81.6759 113.103 81.6748 112.082C81.6681 108.604 81.6681 105.126 81.6748 101.647C81.6736 100.958 81.6736 100.958 82.3896 100.856Z" fill="#FFC700"/>
<path d="M109.004 76.8285C109.125 76.8435 109.247 76.851 109.37 76.8508C109.64 76.8296 109.74 76.9498 109.735 77.2171C109.725 77.8851 109.725 78.5531 109.735 79.2211C109.735 79.4939 109.624 79.6041 109.363 79.5808H109.318C108.359 79.6119 108.344 79.6119 108.347 78.6611C108.347 78.3182 108.222 78.2158 107.901 78.2414C107.581 78.267 107.29 78.2514 106.985 78.2414C106.837 78.2414 106.639 78.3115 106.554 78.1779C106.47 78.0443 106.631 77.8996 106.708 77.776C107.44 76.5936 108.175 75.4134 108.913 74.2354C109.539 73.2334 110.17 72.2313 110.787 71.2293C110.963 70.9398 111.078 70.9109 111.269 71.2204C112.639 73.4308 114.012 75.6375 115.389 77.8405C115.622 78.2158 115.604 78.2414 115.166 78.2458C114.819 78.2458 114.471 78.2625 114.125 78.2458C113.815 78.228 113.715 78.3471 113.718 78.6555C113.73 80.0885 113.718 81.5214 113.718 82.9543C113.718 84.778 113.708 86.6006 113.727 88.4232C113.727 88.8218 113.615 88.961 113.21 88.9454C112.191 88.9098 112.331 89.0567 112.33 88.0469C112.324 84.4986 112.33 80.9502 112.323 77.4019C112.323 77.0478 112.353 76.794 112.802 76.8519C113.053 76.8853 113.001 76.7405 112.914 76.6025C112.339 75.6828 111.766 74.7624 111.194 73.8413C111.082 73.662 110.982 73.6342 110.86 73.8302C110.267 74.8055 109.657 75.7819 109.004 76.8285Z" fill="#FFC700"/>
<path d="M79.0625 110.971C79.0625 111.528 79.0625 112.085 79.0625 112.641C79.0625 112.89 78.9679 112.991 78.7185 112.988C77.4437 112.973 77.692 113.127 77.6742 112.016C77.6597 111.125 77.6819 110.234 77.6664 109.35C77.6608 109.026 77.7699 108.905 78.0972 108.917C79.2351 108.944 79.0414 108.791 79.0603 109.851C79.067 110.226 79.0603 110.602 79.0603 110.976L79.0625 110.971Z" fill="#FFC700"/>
<path d="M105.732 84.2459C105.732 86.7298 103.159 88.3654 100.929 87.2754C100.602 87.1162 100.419 87.164 100.188 87.4123C99.7545 87.881 99.2969 88.332 98.8337 88.7706C98.6189 88.9722 98.5832 89.1325 98.7224 89.4119C98.9286 89.8226 99.0487 90.2711 99.0751 90.7299C99.1016 91.1886 99.0339 91.6479 98.8763 92.0796C98.7187 92.5112 98.4744 92.9061 98.1585 93.2398C97.8427 93.5735 97.4618 93.8391 97.0395 94.0203C96.6172 94.2014 96.1623 94.2942 95.7028 94.293C95.2432 94.2918 94.7888 94.1966 94.3675 94.0132C93.9461 93.8299 93.5667 93.5623 93.2526 93.2269C92.9385 92.8915 92.6963 92.4954 92.5409 92.0629C92.4051 91.681 92.2203 91.553 91.8506 91.6042C91.7397 91.6176 91.6275 91.6176 91.5166 91.6042C91.1514 91.563 90.9221 91.6766 90.7228 92.0306C90.2874 92.8 89.2921 93.1306 88.4326 92.869C87.573 92.6073 87.0052 91.828 87.0074 90.8883C87.003 90.4547 87.1393 90.0315 87.3959 89.682C87.6524 89.3325 88.0154 89.0756 88.4303 88.9499C88.8526 88.8222 89.3047 88.8337 89.7199 88.9827C90.1351 89.1317 90.4913 89.4102 90.7361 89.7771C90.8375 89.9319 90.8597 90.1846 91.0969 90.198C91.4974 90.2396 91.9014 90.2332 92.3004 90.1791C92.4418 90.1523 92.4429 89.9842 92.4853 89.8718C93.249 87.8209 95.2988 86.9692 97.2516 87.9089C97.4832 88.0202 97.619 87.998 97.7905 87.8198C98.2715 87.3177 98.7591 86.8178 99.2646 86.3457C99.4762 86.1464 99.4806 85.9905 99.3559 85.7344C98.3672 83.7092 99.5018 81.3388 101.706 80.9124C104.126 80.4448 105.831 82.4277 105.732 84.2459ZM104.324 84.2269C104.318 83.7135 104.113 83.2224 103.752 82.8574C103.391 82.4923 102.902 82.282 102.389 82.2707C101.332 82.2507 100.415 83.1614 100.417 84.2314C100.419 85.3013 101.34 86.2121 102.393 86.1865C102.906 86.1744 103.395 85.9631 103.755 85.5974C104.115 85.2317 104.319 84.7403 104.324 84.2269ZM95.7051 88.9521C95.1918 88.9569 94.7004 89.1616 94.3354 89.5226C93.9704 89.8837 93.7605 90.3728 93.7501 90.8861C93.7233 91.9415 94.6318 92.8634 95.7007 92.8668C96.2132 92.8614 96.7035 92.6572 97.0683 92.2972C97.433 91.9372 97.6437 91.4496 97.6558 90.9373C97.6814 89.8751 96.774 88.9543 95.7051 88.9521ZM89.6473 90.9261C89.6503 90.8051 89.6174 90.6858 89.5527 90.5835C89.4879 90.4811 89.3943 90.4003 89.2837 90.3511C89.173 90.302 89.0502 90.2867 88.9309 90.3073C88.8116 90.3279 88.701 90.3834 88.6132 90.4669C88.5255 90.5503 88.4644 90.6579 88.4377 90.776C88.4111 90.8941 88.4201 91.0175 88.4635 91.1305C88.507 91.2436 88.583 91.3412 88.6819 91.411C88.7808 91.4808 88.8982 91.5198 89.0193 91.5229C89.1792 91.5185 89.3317 91.455 89.4477 91.3449C89.5636 91.2347 89.6347 91.0856 89.6473 90.9261Z" fill="#FFC700"/>
<path d="M103.064 84.2203C103.065 84.358 103.026 84.4931 102.95 84.6083C102.874 84.7234 102.766 84.8133 102.639 84.8666C102.512 84.9199 102.372 84.9341 102.237 84.9073C102.102 84.8806 101.978 84.8141 101.88 84.7165C101.783 84.6188 101.717 84.4944 101.691 84.3591C101.665 84.2238 101.68 84.0839 101.734 83.9571C101.788 83.8303 101.878 83.7224 101.994 83.6474C102.109 83.5723 102.245 83.5333 102.382 83.5355C102.473 83.5337 102.562 83.5502 102.646 83.584C102.73 83.6178 102.806 83.6682 102.869 83.7322C102.933 83.7962 102.983 83.8725 103.017 83.9563C103.05 84.0402 103.066 84.13 103.064 84.2203Z" fill="#FFC700"/>
<path d="M96.3955 90.8893C96.3993 91.0271 96.3619 91.1628 96.2881 91.2792C96.2142 91.3956 96.1074 91.4873 95.9811 91.5426C95.8549 91.5979 95.7151 91.6143 95.5795 91.5896C95.4439 91.565 95.3187 91.5005 95.22 91.4043C95.1213 91.3081 95.0535 91.1847 95.0254 91.0498C94.9972 90.9149 95.0099 90.7747 95.0619 90.647C95.1139 90.5194 95.2028 90.4102 95.3172 90.3334C95.4316 90.2565 95.5663 90.2156 95.7041 90.2157C95.7943 90.2126 95.8841 90.2277 95.9683 90.2602C96.0524 90.2927 96.1291 90.3419 96.1937 90.4049C96.2583 90.4678 96.3095 90.5432 96.3442 90.6265C96.3789 90.7097 96.3963 90.7991 96.3955 90.8893Z" fill="#FFC700"/>
<ellipse cx="95.9281" cy="2.72536" rx="0.933279" ry="1.39992" fill="#AAAAAA"/>
<path d="M95.9279 6.92505V42.3896" stroke="#AAAAAA" stroke-width="1.1" stroke-miterlimit="10" stroke-linecap="round"/>
<path d="M95.928 59.1887C102.629 59.1887 108.061 53.9656 108.061 47.5227C108.061 41.0797 102.629 35.8567 95.928 35.8567C89.2274 35.8567 83.7954 41.0797 83.7954 47.5227C83.7954 53.9656 89.2274 59.1887 95.928 59.1887Z" fill="#FFC303"/>
<defs>
<filter id="filter0_d_7_1199" x="0.800152" y="0.800121" width="191.194" height="191.194" filterUnits="userSpaceOnUse" color-interpolation-filters="sRGB">
<feFlood flood-opacity="0" result="BackgroundImageFix"/>
<feColorMatrix in="SourceAlpha" type="matrix" values="0 0 0 0 0 0 0 0 0 0 0 0 0 0 0 0 0 0 127 0" result="hardAlpha"/>
<feOffset dy="4"/>
<feGaussianBlur stdDeviation="22.6"/>
<feComposite in2="hardAlpha" operator="out"/>
<feColorMatrix type="matrix" values="0 0 0 0 0 0 0 0 0 0 0 0 0 0 0 0 0 0 0.1 0"/>
<feBlend mode="normal" in2="BackgroundImageFix" result="effect1_dropShadow_7_1199"/>
<feBlend mode="normal" in="SourceGraphic" in2="effect1_dropShadow_7_1199" result="shape"/>
</filter>
</defs>
</svg>
