<svg width="196" height="196" viewBox="0 0 196 196" fill="none" xmlns="http://www.w3.org/2000/svg">
<g filter="url(#filter0_d_8_1200)">
<path d="M134.819 131.227C155.306 110.703 155.306 77.427 134.819 56.903C114.332 36.3789 81.1159 36.379 60.6289 56.903C40.1418 77.427 40.1418 110.703 60.6288 131.227C81.1159 151.751 114.332 151.751 134.819 131.227Z" fill="#EE9221"/>
</g>
<path d="M137.804 94.0971C137.804 72.0243 119.939 54.1165 97.9019 54.0989C75.8647 54.0813 58.0001 71.9606 58.0001 94.0335C58.0001 116.106 75.8647 134.014 97.9019 134.032C119.939 134.049 137.804 116.17 137.804 94.0971Z" fill="#FDFFFF"/>
<path d="M92.5781 93.2476C91.8139 92.8503 91.3522 92.3129 91.2156 91.5352C91.184 91.35 91.0598 91.3331 90.9176 91.2992C89.9942 91.0802 89.414 90.509 89.2051 89.58C89.1947 89.4987 89.157 89.4233 89.0981 89.3663C89.0393 89.3093 88.9627 89.274 88.8811 89.2662C87.9284 89.0336 87.3312 88.441 87.1608 87.46C87.1224 87.241 86.9756 87.1676 86.8221 87.0627C85.3332 86.0061 83.6343 85.4089 81.9342 84.805C80.4215 84.2721 78.9202 83.7043 77.4086 83.1693C77.1129 83.0699 77 82.9153 77 82.5902C77.0105 79.5626 77.0105 76.5354 77 73.5086C77 73.1259 77.1129 72.9927 77.5012 73.0006C78.6131 73.0232 79.7262 73.0175 80.8381 73.0006C81.1751 72.9915 81.5061 73.0904 81.7829 73.2828C83.4164 74.3857 85.0634 75.4682 86.6957 76.5734C86.8349 76.6775 86.9958 76.7489 87.1664 76.7823C87.337 76.8157 87.513 76.8103 87.6812 76.7664C89.1746 76.4278 90.6692 76.0801 92.1751 75.8035C93.4589 75.5797 94.7782 75.6802 96.0132 76.0959C96.4952 76.2505 96.9739 76.4153 97.4604 76.5565C99.6605 77.1931 101.897 77.6853 104.091 78.3491C104.353 78.4314 104.63 78.4568 104.902 78.4235C105.175 78.3902 105.437 78.299 105.672 78.156C108.532 76.4966 111.413 74.8677 114.283 73.2218C114.523 73.0763 114.799 73.0005 115.08 73.0028C116.234 73.013 117.389 73.0153 118.543 73.0028C118.867 73.0028 118.989 73.0988 118.988 73.4363C118.977 76.5068 118.977 79.5765 118.988 82.6455C118.988 83.0282 118.783 83.1117 118.497 83.1986C115.738 84.043 112.981 84.8896 110.225 85.7385C109.93 85.828 109.646 85.9547 109.382 86.1156C108.637 86.5671 107.888 87.0186 107.137 87.4623C106.947 87.5752 106.819 87.6959 106.805 87.9511C106.749 88.9885 106.138 89.703 105.112 89.9401C104.91 89.9864 104.806 90.0361 104.76 90.2663C104.571 91.2022 103.993 91.7948 103.055 91.9709C102.582 92.0601 102.76 92.4507 102.643 92.6956C102.53 92.9214 102.798 92.9553 102.933 93.0219C106.528 94.8043 108.731 97.6671 109.38 101.62C110.149 106.302 108.037 110.844 103.94 113.343C101.788 114.655 99.4359 115.161 96.9411 114.957C92.0205 114.555 87.8392 110.863 86.7307 105.989C86.1908 103.616 86.4175 101.133 87.3782 98.897C88.3389 96.6611 89.984 94.7874 92.0769 93.5457C92.2214 93.4644 92.3637 93.3763 92.5781 93.2476ZM97.9966 96.0607C93.8413 96.1488 90.6094 99.3344 90.6083 103.465C90.6083 107.534 93.7691 110.813 97.9628 110.841C102.003 110.868 105.35 107.721 105.369 103.477C105.392 99.3931 102.197 96.1601 97.9966 96.0607ZM96.3609 77.7734C95.2671 77.332 94.2285 77.1073 93.1482 77.1773C91.412 77.2902 89.7617 77.8546 88.0684 78.1764C87.8347 78.2204 87.7647 78.3852 87.7094 78.5884C87.2658 80.232 86.8063 81.8711 86.374 83.5169C86.2611 83.9606 85.9224 84.4505 86.1076 84.8445C86.2927 85.2384 86.8831 85.3615 87.2714 85.6347C87.504 85.7995 87.6586 85.7566 87.8483 85.559C88.424 84.9607 89.0132 84.3749 89.6081 83.7946C90.8634 82.5687 92.8299 83.1173 93.2532 84.8287C93.3141 85.0736 93.4067 85.1673 93.6472 85.2249C94.5186 85.4349 95.0752 85.9925 95.2772 86.8662C95.3348 87.1191 95.4499 87.197 95.6825 87.2546C96.5348 87.4645 97.0868 88.0053 97.2967 88.8598C97.31 88.967 97.3588 89.0667 97.4353 89.143C97.5118 89.2193 97.6117 89.2678 97.7189 89.2809C98.6818 89.5066 99.4122 90.3194 99.3558 91.2225C99.3151 91.8998 99.7215 92.1797 100.18 92.4495C100.577 92.6855 101.006 92.5985 101.203 92.2983C101.411 91.9788 101.315 91.6368 100.932 91.3117C100.014 90.544 99.0916 89.7809 98.1761 89.0099C97.4988 88.4365 97.4988 88.4331 98.0632 87.7501C98.4222 87.3155 98.4199 87.3178 98.8455 87.6734C99.9032 88.5584 100.961 89.4445 102.027 90.3217C102.442 90.6603 102.93 90.6502 103.196 90.3217C103.463 89.9932 103.367 89.6274 102.941 89.2718C102.045 88.5223 101.144 87.7772 100.25 87.0243C99.5206 86.4091 99.5364 86.4158 100.128 85.6697C100.369 85.3637 100.539 85.3525 100.835 85.6064C101.89 86.5152 102.966 87.4024 104.042 88.2897C104.465 88.6385 104.932 88.6284 105.21 88.2897C105.488 87.9511 105.415 87.5955 105.002 87.223C103.196 85.5906 101.384 83.9632 99.5668 82.3407C98.964 81.8033 98.3962 81.7672 97.7144 82.1747C96.9163 82.65 96.134 83.1456 95.319 83.5994C94.8983 83.8342 94.4155 83.9335 93.9363 83.8838C93.4571 83.8341 93.0049 83.6378 92.6413 83.3217C91.5069 82.3486 91.5554 80.1044 93.2521 79.3221C94.2714 78.8514 95.2637 78.322 96.3632 77.7711L96.3609 77.7734ZM117.565 78.2136C117.565 77.0848 117.556 75.9559 117.571 74.835C117.571 74.5245 117.474 74.4083 117.158 74.4195C116.61 74.4387 116.06 74.4286 115.511 74.4195C115.286 74.4077 115.063 74.459 114.866 74.5674C112.183 76.1079 109.494 77.6432 106.802 79.1731C106.55 79.3154 106.493 79.4203 106.671 79.6822C107.649 81.1257 108.616 82.5781 109.573 84.0396C109.739 84.2936 109.896 84.3286 110.162 84.2462C112.495 83.5185 114.834 82.7975 117.178 82.0833C117.473 81.9941 117.578 81.8575 117.574 81.5482C117.557 80.4363 117.567 79.3233 117.567 78.2114L117.565 78.2136ZM94.6101 95.2897C94.285 95.0888 94.0061 94.9612 93.8323 94.7253C93.6133 94.4228 93.3988 94.4803 93.1143 94.6316C89.4715 96.5721 87.3674 100.85 88.0345 104.983C88.9308 110.545 94.0061 114.261 99.5488 113.424C104.665 112.65 108.723 107.903 107.996 102.216C107.5 98.3455 105.345 95.6329 101.735 94.1067C101.058 93.82 100.877 93.9306 100.637 94.5865C100.511 94.9251 100.607 95.038 100.924 95.1441C103.042 95.8875 104.798 97.4104 105.834 99.4027C106.869 101.395 107.107 103.707 106.498 105.868C105.889 108.03 104.479 109.877 102.555 111.036C100.632 112.194 98.3393 112.576 96.1442 112.104C91.7812 111.162 89.1148 107.234 89.1724 103.486C89.2142 100.722 90.2798 98.4765 92.3569 96.6839C93.0048 96.116 93.7533 95.7018 94.6101 95.2897ZM78.4178 78.1944C78.4178 79.3063 78.4303 80.4194 78.4111 81.5313C78.4043 81.87 78.5172 82.0336 78.8355 82.1465C80.653 82.7922 82.4651 83.4503 84.2721 84.1209C84.5814 84.2338 84.6863 84.1627 84.7654 83.8635C85.244 82.0698 85.7271 80.276 86.2329 78.4902C86.3243 78.1673 86.2385 78.007 85.9766 77.8366C84.7891 77.0588 83.5575 76.3262 82.4365 75.457C81.3619 74.6227 80.2263 74.2333 78.8863 74.4218C78.8725 74.4241 78.8584 74.4241 78.8445 74.4218C78.5059 74.3744 78.4077 74.5279 78.4122 74.8564C78.428 75.9683 78.4178 77.0814 78.4178 78.1944ZM93.2995 81.5166C93.3198 82.2651 94.0061 82.6613 94.6541 82.2955C95.4748 81.8316 96.2717 81.3258 97.0856 80.8483C97.6066 80.5291 98.2176 80.3886 98.8257 80.4481C99.4339 80.5075 100.006 80.7638 100.455 81.178C100.718 81.4105 100.979 81.6464 101.245 81.8824C102.795 83.2742 104.349 84.6627 105.891 86.0591C106.116 86.2634 106.291 86.2917 106.553 86.1212C107.071 85.7826 107.604 85.4653 108.146 85.1662C108.418 85.0161 108.414 84.8851 108.252 84.6469C107.236 83.1418 106.229 81.6306 105.23 80.1135C105.091 79.9024 104.93 79.7985 104.674 79.8222C104.117 79.8741 103.589 79.7432 103.058 79.5852C101.93 79.2465 100.786 78.9383 99.6481 78.62C99.0194 78.445 98.3782 78.4337 97.79 78.7126C96.4411 79.3515 95.1135 80.0322 93.7781 80.6982C93.4293 80.8754 93.3379 81.1949 93.2995 81.5166ZM89.3045 87.8585C89.5293 87.8286 89.737 87.7222 89.8926 87.5571C90.4503 87.0017 91.0135 86.4531 91.5588 85.8864C91.9313 85.4992 91.9505 85.1075 91.6502 84.8016C91.3499 84.4957 90.9515 84.5103 90.5677 84.8783C90.0089 85.4123 89.4704 85.9654 88.9252 86.5129C88.8003 86.627 88.7024 86.7673 88.6384 86.9238C88.6009 87.03 88.5895 87.1436 88.6052 87.2551C88.6208 87.3666 88.6631 87.4726 88.7285 87.5643C88.7938 87.656 88.8802 87.7306 88.9805 87.7818C89.0808 87.833 89.1919 87.8593 89.3045 87.8585ZM91.3048 89.8904C91.459 89.888 91.6082 89.8349 91.7292 89.7392C92.4345 89.1171 93.1 88.4512 93.7217 87.7456C93.9768 87.4532 93.9418 87.1033 93.6686 86.8313C93.3954 86.5592 93.0703 86.5547 92.7497 86.7771C92.7143 86.7999 92.681 86.826 92.6504 86.855C92.051 87.4442 91.4493 88.038 90.8623 88.6408C90.6309 88.8779 90.536 89.1612 90.6918 89.4886C90.8137 89.7471 91.0373 89.8419 91.3025 89.8882L91.3048 89.8904ZM93.3649 91.9224C93.5622 91.8982 93.7461 91.8102 93.8887 91.6718C94.478 91.0893 95.0729 90.5124 95.6452 89.9141C95.9929 89.5495 95.9963 89.1556 95.7039 88.8609C95.4115 88.5663 95.0164 88.5697 94.6518 88.9162C94.0874 89.457 93.5331 90.0214 92.9777 90.5779C92.8531 90.6925 92.7559 90.8338 92.6933 90.9911C92.6578 91.0973 92.6482 91.2106 92.6654 91.3213C92.6826 91.4321 92.7261 91.5371 92.7922 91.6276C92.8583 91.7181 92.945 91.7914 93.0453 91.8415C93.1455 91.8916 93.2563 91.917 93.3683 91.9156L93.3649 91.9224ZM95.363 93.9543C95.5318 93.9508 95.694 93.888 95.8213 93.7771C96.4727 93.1381 97.1297 92.5049 97.7539 91.84C97.8168 91.7769 97.8662 91.7016 97.899 91.6188C97.9319 91.536 97.9475 91.4474 97.945 91.3583C97.9424 91.2693 97.9218 91.1817 97.8843 91.1009C97.8468 91.0201 97.7932 90.9478 97.7268 90.8883C97.4638 90.6287 97.098 90.6095 96.7718 90.8714C96.5479 91.0629 96.3347 91.2664 96.1329 91.481C95.7152 91.8987 95.2953 92.3118 94.8911 92.7419C94.7811 92.8432 94.7077 92.9781 94.6823 93.1256C94.657 93.273 94.6812 93.4247 94.7512 93.5569C94.872 93.8053 95.0955 93.899 95.3607 93.9441L95.363 93.9543ZM98.5814 94.6429C98.6726 94.6452 98.7634 94.6291 98.8484 94.5958C98.9333 94.5624 99.0107 94.5124 99.0761 94.4486C99.1414 94.3849 99.1933 94.3087 99.2287 94.2246C99.2642 94.1404 99.2824 94.0501 99.2824 93.9588C99.2733 93.6856 98.797 93.1325 98.5836 93.1483C98.4911 93.1483 97.6726 93.9645 97.6738 94.0514C97.6715 94.2072 98.3353 94.6372 98.5791 94.6327L98.5814 94.6429Z" fill="#EE9221"/>
<path d="M83.1498 94.8291V108.246C83.1498 108.897 83.1498 108.9 82.512 108.897C81.6552 108.897 81.7421 108.978 81.741 108.127C81.741 103.876 81.741 99.6237 81.741 95.371V94.8066C81.2601 95.4444 80.8481 95.9896 80.4383 96.5348C80.0071 97.1094 79.5713 97.6795 79.1492 98.2608C79.0001 98.4663 78.8771 98.4798 78.666 98.332C77.755 97.6964 77.7494 97.7009 78.4086 96.8216C79.6571 95.1542 80.9136 93.4926 82.153 91.8185C82.3788 91.516 82.5075 91.5035 82.7366 91.8128C84.1033 93.6566 85.4801 95.4921 86.8671 97.3194C87.0759 97.5937 87.0274 97.7348 86.7723 97.9256C85.9561 98.5374 85.9606 98.5453 85.3432 97.7235C84.7257 96.9017 84.0947 96.0562 83.4693 95.2231C83.3869 95.1113 83.2966 95.0075 83.1498 94.8291Z" fill="#EE9221"/>
<path d="M114.245 94.7955V108.313C114.245 108.896 114.245 108.9 113.667 108.897C112.726 108.89 112.838 108.996 112.838 108.061C112.833 103.838 112.833 99.6149 112.838 95.3915V94.9004C112.671 94.9648 112.612 95.098 112.535 95.203C111.781 96.2031 111.022 97.1999 110.283 98.2114C110.096 98.4687 109.959 98.4778 109.71 98.2904C108.873 97.665 108.865 97.6729 109.495 96.833C110.744 95.1661 111.994 93.4999 113.245 91.8345C113.533 91.4507 113.554 91.4507 113.843 91.8345C115.221 93.6692 116.599 95.5032 117.977 97.3365C118.15 97.5623 118.153 97.7011 117.917 97.8874C117.067 98.5568 117.073 98.5647 116.425 97.7011L114.245 94.7955Z" fill="#EE9221"/>
<path d="M83.1497 110.924C83.1497 111.602 83.1497 111.602 82.4171 111.602C81.7397 111.602 81.7397 111.602 81.7397 110.827C81.7397 110.191 81.7397 110.191 82.5141 110.192C83.1497 110.193 83.1497 110.193 83.1497 110.924Z" fill="#EE9221"/>
<path d="M114.245 110.931C114.245 111.608 114.245 111.608 113.507 111.602C112.835 111.602 112.835 111.602 112.835 110.863C112.835 110.186 112.835 110.186 113.616 110.186C114.252 110.193 114.252 110.193 114.245 110.931Z" fill="#EE9221"/>
<path d="M100.598 101.462C100.254 101.521 99.9684 101.455 99.8488 100.947C99.754 100.543 99.4051 100.27 98.9671 100.183C98.3445 100.062 97.7046 100.059 97.0808 100.174C96.7867 100.226 96.5195 100.378 96.3247 100.604C96.1298 100.831 96.0193 101.117 96.0118 101.416C95.9983 102.019 96.4509 102.559 97.0865 102.699C97.6159 102.812 98.1521 102.748 98.6861 102.755C100.075 102.771 101.31 103.856 101.395 105.157C101.5 106.737 100.532 108.019 99.0552 108.205C98.747 108.244 98.6951 108.369 98.6917 108.634C98.6827 109.6 98.6748 109.587 97.713 109.581C97.3743 109.581 97.2502 109.453 97.2863 109.129C97.288 109.115 97.288 109.101 97.2863 109.088C97.2761 108.334 97.2761 108.334 96.5898 108.139C95.9382 107.958 95.3753 107.545 95.0066 106.978C94.6379 106.411 94.4887 105.729 94.5872 105.06C94.5872 105.032 94.5872 104.997 94.5974 104.976C94.8954 104.571 95.3187 104.858 95.6788 104.789C95.8786 104.751 95.9915 104.858 95.9915 105.078C95.9883 105.261 96.0015 105.444 96.031 105.624C96.1495 106.28 96.5051 106.658 97.1599 106.761C97.7299 106.858 98.3125 106.854 98.8814 106.751C99.1825 106.701 99.4566 106.547 99.656 106.316C99.8555 106.084 99.9676 105.791 99.973 105.485C99.973 104.876 99.5214 104.357 98.8825 104.217C98.3666 104.104 97.8439 104.17 97.3247 104.166C95.9057 104.151 94.6899 103.057 94.5827 101.746C94.4326 99.9078 95.7928 98.8241 96.9454 98.7101C97.231 98.6819 97.284 98.5633 97.2931 98.3105C97.3145 97.2945 97.3202 97.2945 98.3305 97.3408C98.6014 97.3521 98.7041 97.4469 98.7019 97.7167C98.7019 98.0102 98.5958 98.35 98.7527 98.587C98.9096 98.8241 99.2719 98.7089 99.535 98.8128C100.392 99.1379 100.983 99.7159 101.286 100.579C101.55 101.335 101.456 101.462 100.598 101.462Z" fill="#EE9221"/>
<circle cx="97.8416" cy="187.373" r="0.933279" fill="#AAAAAA"/>
<path d="M97.8416 183.64V146.309" stroke="#AAAAAA" stroke-width="1.1" stroke-miterlimit="10" stroke-linecap="round"/>
<path d="M97.8417 153.775C105.058 153.775 110.908 148.134 110.908 141.176C110.908 134.218 105.058 128.577 97.8417 128.577C90.6256 128.577 84.7758 134.218 84.7758 141.176C84.7758 148.134 90.6256 153.775 97.8417 153.775Z" fill="#FCAB05"/>
<defs>
<filter id="filter0_d_8_1200" x="0.063549" y="0.310009" width="195.321" height="195.51" filterUnits="userSpaceOnUse" color-interpolation-filters="sRGB">
<feFlood flood-opacity="0" result="BackgroundImageFix"/>
<feColorMatrix in="SourceAlpha" type="matrix" values="0 0 0 0 0 0 0 0 0 0 0 0 0 0 0 0 0 0 127 0" result="hardAlpha"/>
<feOffset dy="4"/>
<feGaussianBlur stdDeviation="22.6"/>
<feComposite in2="hardAlpha" operator="out"/>
<feColorMatrix type="matrix" values="0 0 0 0 0 0 0 0 0 0 0 0 0 0 0 0 0 0 0.1 0"/>
<feBlend mode="normal" in2="BackgroundImageFix" result="effect1_dropShadow_8_1200"/>
<feBlend mode="normal" in="SourceGraphic" in2="effect1_dropShadow_8_1200" result="shape"/>
</filter>
</defs>
</svg>
