<svg width="192" height="192" viewBox="0 0 192 192" fill="none" xmlns="http://www.w3.org/2000/svg">
<g filter="url(#filter0_d_10_1211)">
<path d="M143.774 108.854C153.22 82.6148 139.644 53.6728 113.452 44.2105C87.2594 34.7482 58.3696 48.3488 48.9244 74.5882C39.4792 100.828 53.0551 129.77 79.2472 139.232C105.439 148.694 134.329 135.094 143.774 108.854Z" fill="#EE9221"/>
</g>
<path d="M134.747 91.8601C134.747 70.6493 117.578 53.4375 96.3993 53.4164C75.2204 53.3954 58.0515 70.5731 58.0515 91.7839C58.0515 112.995 75.2204 130.207 96.3993 130.228C117.578 130.249 134.747 113.071 134.747 91.8601Z" fill="#FDFFFF"/>
<path d="M74.9997 111.651H78.7224C78.2844 111.109 77.9778 110.616 77.7928 110.057C77.5158 109.243 77.4931 108.364 77.7278 107.537C77.9625 106.71 78.4434 105.974 79.1067 105.427C79.4351 105.161 79.4811 104.926 79.3454 104.562C78.7749 103.029 77.7118 102.108 76.0694 101.915C75.7278 101.875 75.6129 101.746 75.6162 101.399C75.6249 100.369 75.6162 100.345 76.6432 100.558C78.6227 100.969 79.9574 102.15 80.6461 104.043C80.7676 104.378 80.8651 104.541 81.2658 104.445C81.603 104.365 81.9731 104.405 82.3267 104.42C82.4334 104.431 82.541 104.412 82.6376 104.366C82.7342 104.319 82.8161 104.247 82.8742 104.157C84.557 101.896 87.453 101.826 89.288 103.998C89.4249 104.16 89.541 104.234 89.726 104.107C89.7606 104.087 89.7973 104.071 89.8355 104.059C90.6928 103.708 90.6928 103.708 90.6928 102.745C90.6928 100.984 90.6928 99.2219 90.6928 97.4592C90.6984 97.1735 90.606 96.8946 90.4311 96.6687C89.3202 95.1468 88.2154 93.6201 87.1169 92.0887C87.0446 91.9891 86.9745 91.8884 86.9067 91.7854C86.6953 91.4646 86.668 91.1395 86.9428 90.8493C87.2176 90.5592 87.557 90.5767 87.8789 90.7705C88.6519 91.2347 89.4118 91.711 90.1782 92.184C92.0045 93.3073 93.8329 94.4274 95.6526 95.5606C95.8891 95.7084 96.0567 95.6865 96.2811 95.5475C98.8118 93.9811 101.346 92.419 103.883 90.8614C103.93 90.8329 103.976 90.8022 104.023 90.776C104.403 90.5646 104.762 90.5909 104.993 90.8668C105.249 91.1745 105.212 91.4986 104.993 91.8073C104.39 92.6526 103.784 93.4957 103.176 94.3365C102.592 95.1446 102.01 95.9537 101.424 96.7573C101.292 96.9317 101.222 97.1453 101.227 97.3639C101.232 100.095 101.232 102.827 101.227 105.559C101.227 105.855 101.279 105.936 101.596 105.843C102.334 105.612 103.131 105.663 103.834 105.987C104.071 106.097 104.162 106.028 104.272 105.825C105.752 103.263 108.98 103.006 110.897 105.297C111.049 105.481 111.16 105.498 111.375 105.407C113.82 104.38 116.379 105.724 116.917 108.308C117.402 110.642 115.519 112.974 113.135 112.988C111.919 112.995 110.703 112.98 109.488 112.995C109.159 112.995 109.027 112.9 109.035 112.557C109.063 111.462 108.919 111.649 109.932 111.623C111.092 111.592 112.254 111.707 113.411 111.552C114.615 111.391 115.563 110.289 115.579 109.042C115.578 108.558 115.441 108.084 115.184 107.674C114.926 107.264 114.558 106.935 114.121 106.725C113.685 106.515 113.198 106.433 112.717 106.487C112.236 106.541 111.78 106.73 111.402 107.032C110.816 107.47 110.428 107.369 110.104 106.703C109.599 105.665 108.565 105.033 107.586 105.16C106.272 105.331 105.498 106.051 105.238 107.349C105.175 107.668 105.026 107.911 104.708 108.018C104.411 108.119 104.161 108.003 103.969 107.791C102.79 106.467 100.766 107.252 100.63 108.75C100.631 108.794 100.622 108.839 100.604 108.88C100.586 108.921 100.559 108.957 100.525 108.986C100.491 109.015 100.451 109.036 100.408 109.048C100.365 109.059 100.319 109.061 100.275 109.053C100.098 109.042 99.9205 109.053 99.7421 109.053C99.1946 109.053 99.1311 108.968 99.245 108.422C99.3096 108.115 99.3753 107.796 99.557 107.54C99.8373 107.147 99.8713 106.721 99.8691 106.261C99.857 104.008 99.8691 101.753 99.8691 99.5V99.0687L99.7826 99.0479C99.2329 99.8062 98.6855 100.565 98.1402 101.325C97.6519 102 97.168 102.679 96.6753 103.35C96.2056 103.989 95.7304 103.992 95.2661 103.355C94.3015 102.03 93.3457 100.699 92.3844 99.3719C92.3067 99.2625 92.2574 99.1278 92.1205 99.0632C92.0187 99.1519 92.0658 99.269 92.0658 99.3698C92.0658 100.695 92.0745 102.02 92.0548 103.344C92.0548 103.683 92.1643 103.811 92.4818 103.907C94.0486 104.385 94.976 105.46 95.3067 107.054C95.4326 107.662 95.3603 107.74 94.7395 107.742C94.6714 107.737 94.6029 107.737 94.5348 107.742C94.122 107.802 93.9435 107.661 93.8778 107.21C93.6589 105.677 91.907 104.737 90.4585 105.323C90.185 105.444 89.9275 105.598 89.6921 105.783C89.2311 106.121 88.7953 106.021 88.5457 105.507C88.3399 105.083 88.1078 104.691 87.7289 104.395C87.432 104.158 87.0857 103.99 86.7155 103.904C86.3452 103.818 85.9603 103.815 85.5891 103.897C85.2179 103.979 84.8697 104.143 84.57 104.377C84.2704 104.611 84.0269 104.909 83.8574 105.249C83.8322 105.299 83.8092 105.348 83.7862 105.397C83.5114 105.969 83.2815 106.076 82.6815 105.916C81.1881 105.519 79.7494 106.231 79.1778 107.654C78.4902 109.362 79.641 111.302 81.4651 111.555C82.341 111.676 82.2205 111.457 82.2315 112.421C82.2381 112.984 82.2315 112.986 81.6698 112.986C79.5939 112.986 77.5176 112.986 75.441 112.986C75.2921 112.986 75.1421 112.968 74.9932 112.96L74.9997 111.651ZM90.2187 93.857C90.2503 93.9355 90.2869 94.0119 90.3282 94.0858C92.1413 96.5975 93.9537 99.1099 95.7654 101.623C95.9669 101.903 96.0643 101.819 96.2275 101.591C97.6143 99.6621 99.0041 97.7369 100.397 95.8157C100.839 95.2011 101.281 94.5858 101.722 93.9698C101.581 93.9845 101.446 94.0341 101.329 94.1143C99.7366 95.0931 98.1413 96.0676 96.5548 97.0562C96.1607 97.3026 95.8059 97.307 95.414 97.0562C94.6202 96.5493 93.8143 96.0621 93.0129 95.5683L90.2187 93.857Z" fill="#EE9221"/>
<path d="M96.2268 71C96.4525 71.1307 96.6299 71.3308 96.7327 71.5704C99.4911 77.0967 102.251 82.6182 105.012 88.135C105.341 88.7832 105.251 89.0734 104.626 89.4588C101.929 91.1223 99.2323 92.7843 96.5345 94.4449C96.3728 94.5597 96.1794 94.6214 95.981 94.6214C95.7827 94.6214 95.5893 94.5597 95.4276 94.4449C92.7342 92.7777 90.0371 91.1153 87.3363 89.4577C86.7112 89.0723 86.6258 88.7865 86.9509 88.1361C89.7101 82.615 92.4696 77.0934 95.2294 71.5715C95.3318 71.3316 95.5093 71.1314 95.7352 71.0011L96.2268 71ZM95.2973 88.6901C95.2973 87.5033 95.2973 86.3168 95.2973 85.1307C95.2973 85.0212 95.3466 84.8832 95.2535 84.8208C95.1276 84.7365 95.0345 84.8788 94.9327 84.938C93.0261 86.1058 91.1214 87.277 89.2185 88.4515C88.8265 88.6934 88.8254 88.712 89.2064 88.9474C91.1214 90.1288 93.0385 91.3015 94.9513 92.4894C95.2469 92.6723 95.3061 92.6142 95.3028 92.2901C95.2863 91.0901 95.2973 89.8901 95.2973 88.6901ZM96.6648 88.6584C96.6648 89.8628 96.6648 91.0595 96.6648 92.2595C96.6648 92.3745 96.598 92.5277 96.7272 92.5967C96.8367 92.6536 96.9243 92.5343 97.0141 92.4796C98.9312 91.3026 100.846 90.1179 102.767 88.9474C103.073 88.7613 103.095 88.6573 102.772 88.4613C100.839 87.2847 98.9104 86.0982 96.9878 84.9018C96.7031 84.7255 96.6593 84.8055 96.6593 85.0989C96.6703 86.2858 96.6648 87.4726 96.6648 88.6584ZM95.2973 74.7719L95.2174 74.7664L89.2918 86.6219C89.3291 86.6353 89.3688 86.6406 89.4083 86.6374C89.4477 86.6342 89.486 86.6226 89.5206 86.6033C91.3593 85.4734 93.198 84.3445 95.0367 83.2168C95.2557 83.0799 95.3006 82.9026 95.2995 82.6693C95.2951 80.8934 95.2951 79.1179 95.2995 77.3427L95.2973 74.7719ZM102.681 86.6405C100.692 82.6628 98.7144 78.7069 96.7009 74.6799C96.6858 74.7464 96.6741 74.8137 96.6659 74.8814C96.6659 77.4905 96.6659 80.0985 96.6593 82.7077C96.6593 82.9814 96.7776 83.1237 96.9955 83.2551C98.755 84.3292 100.509 85.4131 102.266 86.4905C102.376 86.5584 102.471 86.6734 102.681 86.6405Z" fill="#EE9221"/>
<path d="M106.505 98.5101C106.91 98.477 107.317 98.5525 107.684 98.7291C107.977 98.8714 108.107 98.8298 108.277 98.5342C108.606 97.9516 109.076 97.4618 109.646 97.1105C110.215 96.7591 110.863 96.5576 111.531 96.5248C112.199 96.492 112.865 96.6289 113.466 96.9229C114.066 97.2168 114.583 97.6582 114.967 98.2057C115.376 98.7746 115.621 99.4444 115.676 100.143C115.699 100.42 115.594 100.559 115.305 100.528C115.278 100.526 115.251 100.526 115.224 100.528C114.405 100.542 114.405 100.542 114.178 99.7802C113.849 98.6623 112.761 97.8652 111.659 97.9254C110.418 97.9944 109.436 98.8243 109.214 100.022C109.149 100.383 109.036 100.688 108.66 100.807C108.285 100.927 108.052 100.698 107.806 100.46C107.259 99.9378 106.602 99.7648 105.879 99.9992C105.174 100.227 104.73 100.72 104.608 101.462C104.561 101.746 104.435 101.871 104.146 101.842C104.01 101.835 103.873 101.835 103.737 101.842C103.156 101.842 103.091 101.762 103.197 101.205C103.498 99.6324 104.845 98.5123 106.505 98.5101Z" fill="#EE9221"/>
<path d="M79.5614 93.2941C79.5614 92.5595 79.6238 92.5025 80.3683 92.6569C82.3511 93.0686 83.6026 94.262 84.1073 96.2208C84.1763 96.4879 84.3033 96.5919 84.5551 96.6664C86.1559 97.1405 87.1139 98.2146 87.45 99.8416C87.5771 100.456 87.507 100.53 86.8873 100.531C86.8056 100.526 86.7237 100.526 86.642 100.531C86.2281 100.594 86.0792 100.422 86.0256 100.003C85.8953 98.9985 84.9789 98.1281 83.9781 97.9824C83.8292 97.9605 83.6814 97.9288 83.5325 97.9168C83.0946 97.8806 82.8603 97.6496 82.8318 97.2138C82.7683 96.2142 82.3938 95.3635 81.6121 94.7175C81.2194 94.3721 80.7355 94.147 80.2183 94.0693C79.4508 93.9839 79.5745 93.9532 79.5614 93.2941Z" fill="#EE9221"/>
<path d="M107.139 95.288C106.404 95.288 106.35 95.2224 106.471 94.4888C106.856 92.1534 108.577 90.4256 110.926 90.0183C110.966 90.0107 111.007 90.0041 111.047 89.9997C111.704 89.9264 111.744 89.9603 111.745 90.6205C111.738 90.7157 111.738 90.8112 111.745 90.9063C111.799 91.2873 111.608 91.3957 111.259 91.4275C109.507 91.5884 108.044 93.0501 107.879 94.7833C107.833 95.288 107.833 95.288 107.139 95.288Z" fill="#EE9221"/>
<path d="M90.7641 109.052C90.7488 109.658 90.8857 109.709 90.1269 109.806C88.8437 109.977 87.6974 111.187 87.5671 112.482C87.5265 112.88 87.3842 113.009 86.9824 113C86.0156 112.977 85.997 112.975 86.2028 112.001C86.4028 111.069 86.8837 110.221 87.5809 109.57C88.278 108.919 89.1578 108.498 90.1017 108.363C90.7236 108.276 90.7641 108.317 90.7641 109.052Z" fill="#EE9221"/>
<path d="M114.367 90.6764C114.367 91.3541 114.367 91.3541 113.678 91.3541C112.989 91.3541 112.999 91.3541 112.999 90.6238C112.999 89.9866 112.999 89.9866 113.689 89.9866C114.379 89.9866 114.367 89.9866 114.367 90.6764Z" fill="#EE9221"/>
<path d="M95.353 109.716C95.353 110.368 95.353 110.368 94.6369 110.368C93.98 110.368 93.98 110.368 93.98 109.652C93.98 108.995 93.98 108.995 94.7376 108.995C95.3541 109.001 95.3541 109.001 95.353 109.716Z" fill="#EE9221"/>
<path d="M101.849 112.99C101.192 112.99 101.192 112.99 101.198 112.274C101.198 111.623 101.198 111.623 101.914 111.623C102.571 111.623 102.571 111.623 102.565 112.38C102.564 112.991 102.564 112.991 101.849 112.99Z" fill="#EE9221"/>
<path d="M104.491 112.99C103.821 112.99 103.819 112.99 103.821 112.293C103.821 111.547 103.772 111.628 104.559 111.624C105.19 111.624 105.19 111.624 105.188 112.361C105.187 112.99 105.187 112.99 104.491 112.99Z" fill="#EE9221"/>
<path d="M107.811 112.331C107.811 112.988 107.811 112.988 107.103 112.988C106.446 112.988 106.446 112.988 106.446 112.281C106.446 111.624 106.446 111.624 107.195 111.624C107.811 111.624 107.811 111.624 107.811 112.331Z" fill="#EE9221"/>
<circle cx="96.6091" cy="1.19207" r="0.933279" fill="#AAAAAA"/>
<path d="M96.6095 4.92505V41.3229" stroke="#AAAAAA" stroke-width="1.1" stroke-miterlimit="10" stroke-linecap="round"/>
<path d="M96.6093 58.1219C103.31 58.1219 108.742 52.69 108.742 45.9893C108.742 39.2886 103.31 33.8567 96.6093 33.8567C89.9087 33.8567 84.4767 39.2886 84.4767 45.9893C84.4767 52.69 89.9087 58.1219 96.6093 58.1219Z" fill="#FCAB05"/>
<defs>
<filter id="filter0_d_10_1211" x="0.721233" y="0.00190353" width="191.256" height="191.439" filterUnits="userSpaceOnUse" color-interpolation-filters="sRGB">
<feFlood flood-opacity="0" result="BackgroundImageFix"/>
<feColorMatrix in="SourceAlpha" type="matrix" values="0 0 0 0 0 0 0 0 0 0 0 0 0 0 0 0 0 0 127 0" result="hardAlpha"/>
<feOffset dy="4"/>
<feGaussianBlur stdDeviation="22.6"/>
<feComposite in2="hardAlpha" operator="out"/>
<feColorMatrix type="matrix" values="0 0 0 0 0 0 0 0 0 0 0 0 0 0 0 0 0 0 0.1 0"/>
<feBlend mode="normal" in2="BackgroundImageFix" result="effect1_dropShadow_10_1211"/>
<feBlend mode="normal" in="SourceGraphic" in2="effect1_dropShadow_10_1211" result="shape"/>
</filter>
</defs>
</svg>
