<svg width="194" height="191" viewBox="0 0 194 191" fill="none" xmlns="http://www.w3.org/2000/svg">
<g filter="url(#filter0_d_10_1207)">
<path d="M133.304 56.0601C128.655 51.4214 123.13 47.7426 117.047 45.2351C110.965 42.7276 104.444 41.4409 97.8597 41.4489C91.0722 41.1199 84.2882 42.166 77.9192 44.5238C71.5502 46.8817 65.7288 50.502 60.8081 55.1654C55.8875 59.8287 51.9699 65.4379 49.2932 71.6528C46.6164 77.8677 45.2362 84.5586 45.2362 91.3201C45.2362 98.0816 46.6164 104.773 49.2932 110.988C51.9699 117.202 55.8875 122.812 60.8081 127.475C65.7288 132.138 71.5502 135.759 77.9192 138.116C84.2882 140.474 91.0722 141.52 97.8597 141.191C107.76 141.163 117.43 138.222 125.654 132.737C133.878 127.253 140.287 119.471 144.076 110.371C147.865 101.27 148.864 91.258 146.947 81.594C145.03 71.93 140.284 63.0461 133.304 56.0601Z" fill="#FDFFFF"/>
</g>
<path d="M133.199 56.0183C128.517 51.3741 122.952 47.691 116.826 45.1805C110.699 42.6701 104.131 41.3818 97.4999 41.3898V141.251C107.471 141.222 117.211 138.277 125.494 132.786C133.777 127.296 140.233 119.505 144.049 110.393C147.865 101.282 148.871 91.258 146.941 81.5825C145.01 71.907 140.229 63.0126 133.199 56.0183Z" fill="url(#paint0_linear_10_1207)"/>
<path d="M97.5825 129.447C118.624 129.447 135.693 112.362 135.709 91.2861C135.725 70.2104 118.68 53.1252 97.6394 53.1252C76.5983 53.1252 59.5284 70.2104 59.5127 91.2861C59.497 112.362 76.5414 129.447 97.5825 129.447Z" fill="#FDFFFF"/>
<path d="M97.993 103.614C91.7792 103.614 85.5654 103.592 79.3516 103.632C78.0533 103.641 76.9942 102.662 77.0012 101.299C77.0385 93.0332 77.0385 84.7675 77.0012 76.5019C76.9972 76.1963 77.0547 75.8931 77.1703 75.6101C77.2858 75.3272 77.457 75.0704 77.6738 74.855C77.8905 74.6395 78.1484 74.4698 78.432 74.356C78.7156 74.2422 79.0192 74.1865 79.3248 74.1923C83.4074 74.246 87.5029 74.211 91.5914 74.2133C92.219 74.2133 92.5374 74.5376 92.4523 75.0765C92.4403 75.2312 92.3719 75.3761 92.2601 75.4837C92.1482 75.5912 92.0008 75.6539 91.8457 75.6597C91.6861 75.6706 91.5261 75.6733 91.3663 75.6679H79.5791C78.6844 75.6679 78.4768 75.8767 78.4768 76.776C78.4768 83.1792 78.4768 89.582 78.4768 95.9843C78.4768 96.5676 78.4768 96.5676 79.0483 96.5676C80.798 96.5676 82.5407 96.5594 84.2869 96.5746C84.6194 96.5746 84.7617 96.4743 84.8597 96.1465C85.5759 93.7657 87.8855 92.5397 90.2616 93.277C90.5742 93.3738 90.7072 93.3306 90.8694 93.0437C91.3397 92.2113 92.0929 91.5751 92.9923 91.2508C93.5476 91.0373 93.9535 91.1808 94.125 91.6252C94.2871 92.0452 94.0923 92.4126 93.5592 92.6331C93.1436 92.7943 92.7722 93.0519 92.4755 93.3847C92.1788 93.7175 91.9654 94.1159 91.8527 94.5472C91.6194 95.3428 91.196 95.5026 90.4891 95.0593C89.2351 94.272 87.812 94.4353 86.8905 95.4734C86.6894 95.7039 86.5264 95.9649 86.4076 96.2468C86.305 96.4801 86.3819 96.5746 86.6246 96.5687C86.7109 96.5687 86.7984 96.5687 86.8859 96.5687H109.109C109.196 96.5687 109.283 96.5687 109.371 96.5687C109.645 96.5816 109.706 96.4661 109.595 96.2188C109.209 95.3661 108.569 94.819 107.653 94.6184C106.901 94.4504 106.214 94.6184 105.573 95.0232C104.792 95.5154 104.414 95.3731 104.138 94.4773C104.025 94.0685 103.818 93.6916 103.535 93.3759C103.252 93.0602 102.899 92.8143 102.505 92.6576C102.23 92.5409 101.972 92.4243 101.872 92.1058C101.825 91.974 101.819 91.8315 101.853 91.696C101.887 91.5605 101.961 91.4382 102.064 91.3441C102.31 91.0957 102.618 91.1108 102.919 91.2135C103.87 91.5287 104.667 92.1888 105.155 93.0635C105.313 93.3423 105.439 93.3714 105.731 93.2758C106.27 93.0911 106.84 93.0178 107.408 93.0604C107.976 93.103 108.529 93.2606 109.034 93.5237C109.539 93.7867 109.985 94.1497 110.345 94.5906C110.706 95.0314 110.973 95.5409 111.13 96.0882C111.246 96.4661 111.409 96.5792 111.795 96.5746C113.527 96.5536 115.258 96.5536 116.99 96.5746C117.396 96.5746 117.543 96.4824 117.542 96.0462C117.529 89.6002 117.526 83.1539 117.533 76.7072C117.533 75.8977 117.299 75.6726 116.49 75.6714H104.444C103.852 75.6714 103.557 75.4381 103.545 74.961C103.535 74.5329 103.794 74.2366 104.229 74.2215C104.724 74.2051 105.219 74.2215 105.714 74.2215H116.758C118.132 74.2215 118.993 75.08 118.993 76.4494C118.993 84.7586 118.993 93.0678 118.993 101.377C118.993 102.765 118.13 103.618 116.724 103.618L97.993 103.614ZM98.0035 98.0257H94.7735C89.5205 98.0257 84.2675 98.0229 79.0145 98.0175C78.6039 98.0175 78.4511 98.119 78.4674 98.5506C78.4989 99.3939 78.4756 100.238 78.4768 101.082C78.4779 101.925 78.6482 102.107 79.4951 102.107H116.512C117.355 102.107 117.528 101.933 117.531 101.082C117.531 100.268 117.531 99.4511 117.531 98.6322C117.531 98.0222 117.531 98.021 116.905 98.021L98.0035 98.0257Z" fill="#A4C240"/>
<path d="M102.927 79.7016C102.93 79.7455 102.93 79.7895 102.927 79.8334C102.823 80.4878 103.076 80.9451 103.557 81.4198C104.739 82.5863 105.247 84.1027 105.54 85.7066C105.675 86.4658 105.737 87.236 105.727 88.0069C105.727 88.4175 105.665 88.7803 105.224 88.9144C104.783 89.0486 104.482 88.8316 104.253 88.4478C103.734 87.5951 102.958 86.9287 102.037 86.5441C101.716 86.403 101.535 86.4147 101.361 86.7774C100.636 88.2565 100.624 88.2507 99.0031 88.2507C98.0139 88.2507 97.0201 88.2402 96.0344 88.2507C95.8671 88.2651 95.6993 88.2301 95.5516 88.1501C95.404 88.0701 95.2831 87.9485 95.2039 87.8004C95.0021 87.4505 94.7851 87.1006 94.6206 86.7273C94.4865 86.424 94.322 86.3983 94.0374 86.5162C93.0843 86.8989 92.2804 87.5793 91.7453 88.456C91.5598 88.7616 91.3335 88.9844 90.9416 88.9401C90.5777 88.8981 90.3129 88.6998 90.3024 88.3382C90.2335 85.9108 90.6616 83.6175 92.2072 81.6473C92.2799 81.5379 92.3706 81.4417 92.4755 81.3627C93.0471 81.0127 93.0984 80.4843 93.0926 79.8649C93.0564 76.0879 94.6638 73.0166 97.2685 70.399C97.8074 69.8578 98.1935 69.8613 98.736 70.399C100.964 72.6153 102.449 75.2259 102.84 78.3917C102.859 78.5503 102.9 78.7078 102.906 78.8664C102.918 79.1417 102.906 79.4182 102.906 79.6946L102.927 79.7016ZM98.0279 74.9786H97.0247C95.6845 74.9786 95.6961 74.9786 95.2284 76.2325C94.4807 78.2155 94.4573 80.2639 94.7618 82.3297C94.9569 83.7588 95.4157 85.1392 96.1149 86.4007C96.1745 86.5326 96.2743 86.6423 96.4 86.7142C96.5257 86.786 96.6708 86.8163 96.8148 86.8008C97.6134 86.7774 98.4128 86.7774 99.213 86.8008C99.3564 86.8168 99.5011 86.7864 99.6259 86.7139C99.7506 86.6414 99.8488 86.5308 99.9059 86.3983C100.215 85.8373 100.479 85.2522 100.693 84.6486C101.176 83.2337 101.38 81.7779 101.428 80.2849C101.484 78.5948 101.147 76.9149 100.446 75.3763C100.317 75.0871 100.152 74.9541 99.8208 74.9681C99.2165 74.9972 98.6193 74.9786 98.0279 74.9786ZM102.737 82.7438C102.543 83.4693 102.375 84.1097 102.199 84.7478C102.157 84.8983 102.176 85.0009 102.333 85.0569C102.905 85.2575 103.422 85.569 104.033 85.9469C103.817 84.7384 103.464 83.7108 102.732 82.7438H102.737ZM93.278 82.7438C92.5782 83.6536 92.2457 84.6358 92.0264 85.66C91.9868 85.8478 92.0707 85.9108 92.2422 85.7906C92.6874 85.4874 93.1681 85.2398 93.6735 85.0534C93.8578 84.9811 93.8554 84.8691 93.8099 84.7035C93.6291 84.0911 93.4647 83.4623 93.2734 82.7484L93.278 82.7438ZM98.0279 73.5193H99.1139C99.304 73.5193 99.3472 73.4458 99.2399 73.286C98.919 72.8215 98.5638 72.3817 98.1772 71.9702C98.0419 71.8221 97.9276 71.8711 97.8144 71.9959C97.452 72.3901 97.115 72.807 96.8054 73.244C96.6725 73.4342 96.6888 73.5286 96.9431 73.5252C97.3 73.5193 97.6616 73.5193 98.0279 73.5193Z" fill="#A4C240"/>
<path d="M98 112H89.1861C88.3999 112 88.1981 111.799 88.1958 111.028C88.1958 110.621 88.1958 110.212 88.1958 109.807C88.2133 108.666 89.129 107.686 90.2476 107.773C91.2053 107.847 91.8469 107.486 92.4044 106.779C92.7573 106.354 93.0697 105.896 93.3376 105.413C93.5966 104.919 94.0025 104.759 94.4049 104.966C94.8074 105.174 94.9147 105.598 94.6732 106.096C94.4393 106.566 94.1541 107.007 93.8229 107.413C93.7564 107.497 93.6071 107.576 93.6946 107.698C93.7342 107.754 93.88 107.747 93.9768 107.747C95.5617 107.747 97.1469 107.747 98.7326 107.747C99.8384 107.747 100.949 107.747 102.049 107.747C102.144 107.747 102.273 107.795 102.33 107.691C102.387 107.587 102.269 107.511 102.213 107.437C101.881 107.032 101.594 106.592 101.357 106.124C101.099 105.603 101.202 105.169 101.624 104.958C102.025 104.759 102.431 104.922 102.685 105.425C103.092 106.231 103.678 106.887 104.329 107.499C104.414 107.587 104.518 107.656 104.633 107.7C104.748 107.744 104.87 107.762 104.993 107.753C105.268 107.735 105.545 107.745 105.821 107.753C106.342 107.773 106.836 107.988 107.206 108.355C107.576 108.722 107.794 109.215 107.817 109.736C107.828 110.202 107.824 110.669 107.817 111.136C107.811 111.769 107.584 112.005 106.946 112.006C103.963 112.003 100.981 112.002 98 112ZM97.9848 110.543H103.307C104.194 110.543 105.082 110.536 105.968 110.543C106.239 110.543 106.36 110.468 106.362 110.173C106.362 109.489 106.102 109.204 105.38 109.204C100.466 109.204 95.5512 109.204 90.6349 109.204C90.4454 109.192 90.2555 109.222 90.0785 109.29C89.7717 109.429 89.5792 109.891 89.6609 110.305C89.7367 110.691 90.0517 110.538 90.2616 110.538C92.836 110.547 95.4104 110.543 97.9848 110.543Z" fill="#A4C240"/>
<path d="M100.828 90.8799C100.731 92.3963 99.9785 93.8649 98.5881 95.0034C98.1728 95.344 97.8252 95.3416 97.4064 94.9894C95.9705 93.7821 95.1761 92.2575 95.1901 90.355C95.1901 89.8709 95.4164 89.6201 95.8422 89.5909C96.3263 89.5583 96.605 89.7764 96.6435 90.2908C96.717 91.2672 96.941 92.1817 97.5511 92.9737C97.985 93.5394 98.0456 93.5406 98.4842 92.9574C99.0336 92.2225 99.2763 91.3908 99.3533 90.4833C99.4127 89.7694 99.6682 89.5396 100.204 89.5886C100.664 89.6341 100.828 89.9024 100.828 90.8799Z" fill="#A4C240"/>
<path d="M98.0279 100.822C97.5613 100.822 97.0947 100.831 96.6281 100.822C96.1615 100.812 95.8792 100.509 95.8874 100.087C95.8858 99.9919 95.9034 99.8978 95.9392 99.81C95.9751 99.7223 96.0284 99.6427 96.0959 99.5762C96.1634 99.5096 96.2438 99.4575 96.332 99.423C96.4203 99.3884 96.5147 99.3721 96.6094 99.3751C97.5683 99.3619 98.5267 99.3619 99.4848 99.3751C99.5797 99.3724 99.6743 99.3891 99.7626 99.4241C99.8509 99.459 99.9311 99.5116 99.9985 99.5787C100.066 99.6457 100.119 99.7257 100.154 99.8138C100.19 99.902 100.207 99.9964 100.204 100.091C100.204 100.512 99.9129 100.812 99.4591 100.822C98.982 100.83 98.5026 100.822 98.0279 100.822Z" fill="#A4C240"/>
<path d="M97.9895 81.9633C97.4258 81.9623 96.8856 81.7375 96.4877 81.3383C96.0898 80.9391 95.8668 80.3981 95.8677 79.8345C95.8686 79.2708 96.0934 78.7306 96.4926 78.3327C96.8919 77.9347 97.4328 77.7117 97.9965 77.7126C99.2295 77.7126 100.135 78.6225 100.13 79.8613C100.128 81.0581 99.2026 81.9644 97.9895 81.9633ZM98.6462 79.852C98.649 79.7249 98.614 79.5998 98.5456 79.4927C98.4773 79.3855 98.3788 79.301 98.2624 79.2498C98.1461 79.1986 98.0171 79.1831 97.892 79.2052C97.7668 79.2272 97.651 79.286 97.5592 79.3739C97.4673 79.4618 97.4037 79.5749 97.3761 79.699C97.3486 79.8231 97.3585 79.9526 97.4046 80.071C97.4507 80.1895 97.5308 80.2916 97.6349 80.3646C97.739 80.4375 97.8624 80.4779 97.9895 80.4807C98.1577 80.4767 98.3183 80.41 98.4398 80.2937C98.5613 80.1773 98.6349 80.0198 98.6462 79.852Z" fill="#A4C240"/>
<circle cx="97.4999" cy="1.2586" r="0.933279" fill="#AAAAAA"/>
<path d="M97.4999 4.99194V40.4565" stroke="#AAAAAA" stroke-width="1.1" stroke-miterlimit="10" stroke-linecap="round"/>
<ellipse cx="97.4999" cy="42.7898" rx="0.933279" ry="0.466639" fill="#AAAAAA"/>
<path d="M97.4998 58.1888C104.2 58.1888 109.632 52.5479 109.632 45.5895C109.632 38.6311 104.2 32.9902 97.4998 32.9902C90.7991 32.9902 85.3672 38.6311 85.3672 45.5895C85.3672 52.5479 90.7991 58.1888 97.4998 58.1888Z" fill="url(#paint1_linear_10_1207)"/>
<defs>
<filter id="filter0_d_10_1207" x="0.0362053" y="0.18977" width="193.061" height="190.261" filterUnits="userSpaceOnUse" color-interpolation-filters="sRGB">
<feFlood flood-opacity="0" result="BackgroundImageFix"/>
<feColorMatrix in="SourceAlpha" type="matrix" values="0 0 0 0 0 0 0 0 0 0 0 0 0 0 0 0 0 0 127 0" result="hardAlpha"/>
<feOffset dy="4"/>
<feGaussianBlur stdDeviation="22.6"/>
<feComposite in2="hardAlpha" operator="out"/>
<feColorMatrix type="matrix" values="0 0 0 0 0 0 0 0 0 0 0 0 0 0 0 0 0 0 0.1 0"/>
<feBlend mode="normal" in2="BackgroundImageFix" result="effect1_dropShadow_10_1207"/>
<feBlend mode="normal" in="SourceGraphic" in2="effect1_dropShadow_10_1207" result="shape"/>
</filter>
<linearGradient id="paint0_linear_10_1207" x1="97.4999" y1="91.3268" x2="147.976" y2="91.3268" gradientUnits="userSpaceOnUse">
<stop offset="0.01" stop-color="#73B24F"/>
<stop offset="0.37" stop-color="#8EBB47"/>
<stop offset="0.76" stop-color="#A5C340"/>
<stop offset="1" stop-color="#ADC63E"/>
</linearGradient>
<linearGradient id="paint1_linear_10_1207" x1="109.632" y1="45.5895" x2="85.3672" y2="45.5895" gradientUnits="userSpaceOnUse">
<stop offset="0.01" stop-color="#73B24F"/>
<stop offset="0.37" stop-color="#8EBB47"/>
<stop offset="0.76" stop-color="#A5C340"/>
<stop offset="1" stop-color="#ADC63E"/>
</linearGradient>
</defs>
</svg>
