<svg width="13" height="13" viewBox="0 0 13 13" fill="none" xmlns="http://www.w3.org/2000/svg">
<path d="M6.84947 0.113281C7.07806 0.204717 7.1695 0.377429 7.1695 0.621258C7.16442 1.00224 7.1695 1.3883 7.16442 1.76929C7.16442 1.98772 7.02726 2.15535 6.82407 2.20615C6.65136 2.25186 6.45325 2.16551 6.35673 1.99788C6.3161 1.92676 6.29578 1.85056 6.29578 1.76929C6.29578 1.36798 6.29578 0.966683 6.29578 0.560301C6.29578 0.341871 6.41261 0.194558 6.61072 0.113281C6.692 0.113281 6.77327 0.113281 6.84947 0.113281Z" fill="#FBBA07"/>
<path d="M12.8638 6.3662C12.7724 6.59478 12.5997 6.68622 12.3558 6.68622C11.9748 6.68114 11.5888 6.68622 11.2078 6.68114C10.9894 6.68114 10.8268 6.54399 10.7709 6.3408C10.7252 6.16808 10.8116 5.96997 10.9792 5.87346C11.0503 5.83282 11.1265 5.8125 11.2078 5.8125C11.6091 5.8125 12.0104 5.8125 12.4168 5.8125C12.6352 5.8125 12.7825 5.92933 12.8638 6.12745C12.8638 6.20364 12.8638 6.28492 12.8638 6.3662Z" fill="#FBBA07"/>
<path d="M6.72737 3.15137C8.41893 3.15137 9.82603 4.55846 9.82603 6.25003C9.82603 7.94159 8.41893 9.34869 6.72737 9.34869C5.04089 9.34869 3.63887 7.94159 3.63379 6.25511C3.63379 4.56354 5.04089 3.15137 6.72737 3.15137ZM6.72229 8.46989C7.96683 8.47497 8.94723 7.50473 8.95231 6.26019C8.95739 5.00548 7.98715 4.02509 6.73753 4.02509C5.49299 4.02001 4.51259 4.99024 4.50751 6.23479C4.50243 7.48441 5.47775 8.46481 6.72229 8.46989Z" fill="#FBBA07"/>
<path d="M1.64243 6.68104C1.44432 6.68104 1.24621 6.68612 1.04302 6.68104C0.778872 6.67597 0.596001 6.49817 0.590921 6.25434C0.585841 6.00544 0.773793 5.8124 1.03794 5.8124C1.44432 5.80732 1.8507 5.80732 2.25709 5.8124C2.50599 5.81748 2.70919 6.02067 2.70411 6.25434C2.69903 6.48293 2.50599 6.68104 2.26217 6.68612C2.0539 6.68612 1.84562 6.68104 1.64243 6.68104Z" fill="#FBBA07"/>
<path d="M7.16952 11.3349C7.16952 11.533 7.16952 11.7261 7.16952 11.9242C7.16444 12.1985 6.98157 12.3915 6.72758 12.3915C6.48375 12.3915 6.30088 12.1985 6.2958 11.9292C6.29072 11.533 6.29072 11.1368 6.2958 10.7457C6.2958 10.4866 6.49391 10.2783 6.73266 10.2783C6.97141 10.2783 7.16444 10.4815 7.16952 10.7406C7.16952 10.7507 7.16952 10.7558 7.16952 10.766C7.16952 10.9539 7.16952 11.1419 7.16952 11.3349Z" fill="#FBBA07"/>
<path d="M9.88654 3.52183C9.70874 3.51675 9.58175 3.43548 9.51063 3.27292C9.43444 3.10529 9.45984 2.94274 9.58683 2.80559C9.7189 2.66335 9.86114 2.5262 9.99829 2.38904C10.1608 2.22649 10.3234 2.05886 10.491 1.90139C10.618 1.78455 10.7704 1.74391 10.933 1.80995C11.0854 1.86583 11.1768 1.98266 11.2073 2.14521C11.2327 2.28745 11.1819 2.40936 11.0854 2.50588C10.7907 2.80559 10.4961 3.10021 10.1964 3.39484C10.1151 3.48119 10.0085 3.52691 9.88654 3.52183Z" fill="#FBBA07"/>
<path d="M2.67823 10.7097C2.50044 10.7047 2.37345 10.6234 2.29217 10.471C2.21089 10.3135 2.22613 10.151 2.34297 10.024C2.65283 9.69887 2.97286 9.37884 3.29797 9.06897C3.46052 8.91658 3.70943 8.9369 3.86182 9.09437C4.01929 9.25693 4.03961 9.50076 3.88214 9.66839C3.57735 9.98841 3.26241 10.2983 2.94238 10.6081C2.87634 10.6742 2.78491 10.7148 2.67823 10.7097Z" fill="#FBBA07"/>
<path d="M2.68405 1.78437C2.80597 1.78437 2.90756 1.84025 2.99392 1.92152C3.28347 2.21107 3.57809 2.50062 3.86256 2.79525C4.03527 2.97304 4.03527 3.23719 3.87272 3.39974C3.70001 3.57245 3.44602 3.57753 3.26315 3.39974C2.96344 3.10003 2.66881 2.8054 2.37419 2.5057C2.24211 2.36854 2.21671 2.19075 2.28783 2.03328C2.36403 1.87581 2.51134 1.77929 2.68405 1.78437Z" fill="#FBBA07"/>
<path d="M11.1978 10.3187C11.1876 10.4661 11.1064 10.5981 10.9489 10.6693C10.7965 10.7404 10.6339 10.7302 10.512 10.6134C10.1818 10.2984 9.86182 9.9784 9.54687 9.64822C9.39956 9.49075 9.42496 9.23676 9.58243 9.08437C9.74498 8.93197 9.99897 8.91673 10.1564 9.07421C10.4663 9.37899 10.7711 9.68886 11.081 9.99364C11.1622 10.08 11.1927 10.1765 11.1978 10.3187Z" fill="#FBBA07"/>
</svg>
