<svg width="1160" height="94" viewBox="0 0 1160 94" fill="none" xmlns="http://www.w3.org/2000/svg">
<path d="M10 14.2512C92.5952 32.9168 86 83.3138 177.06 83.3138C278.089 83.3138 278.089 10.5181 379.1 10.5181C480.112 10.5181 480.129 83.3138 581.158 83.3138C682.187 83.3138 682.187 10.5181 783.198 10.5181C884.21 10.5181 884.245 83.3138 985.273 83.3138C1072.54 83.3138 1080.47 31.0502 1150 14.7178" stroke="#D1E041" stroke-width="20" stroke-miterlimit="10" stroke-linecap="round"/>
<path d="M50.5977 30.1256C87.283 51.687 109.986 83.3138 176.591 83.3138C277.649 83.3138 277.649 10.5181 378.689 10.5181C479.729 10.5181 479.747 83.3138 580.804 83.3138C681.862 83.3138 681.862 10.5181 782.902 10.5181C883.943 10.5181 883.977 83.3138 985.035 83.3138C1066.28 83.3138 1082.2 36.2138 1137.87 17.8098" stroke="#7FBC3B" stroke-width="2" stroke-miterlimit="10" stroke-linecap="round" stroke-dasharray="24.37 34.12"/>
</svg>
